<svg xmlns="http://www.w3.org/2000/svg" xml:space="preserve" width="1080" height="1080" viewBox="0 0 1080 1080"><path d="M2247.12 1541.62c224.92 37.48 257.48 115.56 257.48 115.56l24.34 12.82c-36.09-130.45-281.82-128.38-281.82-128.38m7.26-65.62c190.59 10.43 249.43 105.96 249.43 105.96l23.71 10.66c-47.14-137.43-273.14-116.62-273.14-116.62m-6.23-57.26c177.02-8.33 238.75 75.99 238.75 75.99l21.89 5.22c-61.73-120.78-260.64-81.21-260.64-81.21m-12.5-58.32c165.57-17.69 218.97 49.98 218.97 49.98l27.08 6.26c-75.28-110.39-246.05-56.24-246.05-56.24m-20.82-55.17c105.15-27.08 179.4 17.68 179.4 17.68l29.16 5.19c-75-80.14-208.56-22.87-208.56-22.87m-23.94-55.21c79.13-31.22 136.69.4 136.69.4l26.03 1.7c-81.22-65.62-162.72-2.1-162.72-2.1m-13.24-191.47c-50.23-12.18-76.48-65.269-76.48-65.269s41.05 41.529 88.53 48.559c20.88 3.12 38.02 1.79 54.63.55 22.25-1.7 45.13-3.45 75.55 5.52-30.99-78.27-159.94-111.942-159.94-111.942 15.47 2.653 113.28-17.199 175.65 20.633-10.83-36.461-42.72-104-129.58-105.492a61.2 61.2 0 0 1-7.97 14.422c-15.81 21.14-42.32 28.09-56.7 30.379 1.42 27.371-8.68 69.941-56.33 83.832-53.41 15.539-86.27-16.051-100.65-35.383-12.88 16.762-41.73 41.48-96.99 33.582-33.71-4.84-50.28-29.781-57.5-54.102-13.04 2.09-46.46 5.211-70.06-12.48a55 55 0 0 1-9.65-9.231c-11.58-1.089-31.81-1.296-57.23 5.551 0 0 24.28-23.597 46.28-26.347-1.93-6.231-3.18-13.043-3.57-20.461a71 71 0 0 1 0-6.993c-66.81 13.262-93.13 70.274-102.78 102.723 62.42-37.832 160.15-17.98 175.63-20.633 0 0-135 32.582-159.9 111.942 30.42-8.97 53.28-7.22 75.51-5.52 16.63 1.24 33.77 2.57 54.66-.55 47.5-7.03 88.54-48.559 88.54-48.559s-26.25 53.089-76.5 65.269c-43.63 31.8-38.29 91.49-30.92 125.01 37.31-50.43 126.41-22.85 161.34-113.47 3.35-28.62 17.78-51.49 17.78-51.49s-6.21 21.05-3.91 53.87c5.48 77.33 32.65 130.9 49 153.83 15.47-22.28 43.35-77.57 48.2-149.06 3.12-34.03-3.07-58.64-3.07-58.64s6.77 10.88 12.32 28.25c2.17 6.83 5.44 23.24 5.44 23.24 29.06 85.58 125.97 65.09 161.59 113.47 7.37-33.52 12.72-93.21-30.92-125.01m11.23-254.191c-11.06-43.731-46.84-47.688-61.73-47.438-25.84.547-48.43 13.368-54.52 29.641 6.87 15.156 2.7 47.457 2.7 47.457s-.5-28.129-27.05-57.301c-13.63-14.929-37.81-38.148-67.25-39.269-66.79-2.578-85.84 63.25-85.84 63.25s-24.96-51.559-73.24-41.59c-6.16 1.301-36.62 9.98-30.47 50.043l1.35 8.769-8.68 1.84c-1.28.239-31.53 7.051-29.8 40.11.9 16.757 6.34 28.699 16.66 36.449 17.36 13.07 44.01 10.801 55 9.129-.07-17.828 12.43-34.989 12.43-34.989 0 .622.37 82.602 54.68 90.09 75.49 10.391 90.24-56.929 90.24-56.929s21.21 76.859 96.4 58.129c57.04-14.219 40.23-83.079 40.23-83.079s41.76 5.321 63.05-24.351c8.94-12.442 11.13-29.078 5.84-49.961m-575.19 447.761 26.03-1.7s57.61-31.62 136.72-.4c0 0-81.51-63.52-162.75 2.1m-69.75 75.98 29.14-5.19s74.23-44.76 179.41-17.68c0 0-133.58-57.27-208.55 22.87m-58.33 88.54 27.1-6.26s53.37-67.67 218.97-49.98c0 0-170.76-54.15-246.07 56.24m-27.07 83.29 21.88-5.22s61.73-84.32 238.73-75.99c0 0-198.85-39.57-260.61 81.21m4.95 82.01s58.87-95.53 249.43-105.96c0 0-225.94-20.81-273.11 116.62zm-.76 75.22s32.56-78.08 257.49-115.56c0 0-245.74-2.07-281.85 128.38zm465.39-485.2-4.35-7.62s-48.92 28.44-67.47 96.41c0 0 29.92-49.84 61.78-69.53 16.07 30.6 20.85 71.81 20.85 71.81s12.97-41.64-10.81-91.07m187.83 88.5c-16.72-67.16-71.1-95.82-71.1-95.82l-4.46 6.89c-25.49 56.65-9.79 91.58-9.79 91.58s2.82-53.16 19.19-72.96c35.74 19.8 66.16 70.31 66.16 70.31m-34.79 4.15-5.01-3.18s-25.15 15.68-34.79 64.57c-19.15-47.85-57.41-69.04-57.41-69.04s-36.39 19.11-53.76 65.06c-11.77-44.23-35.48-60.77-35.48-60.77l-5.07 3.14c-48.96 42.89-50.77 95.2-50.77 95.2s24.71-59.23 53.52-79.31c35.53 38.96 37.69 79.99 37.69 79.99s7.41-42.23 53.68-80.88c49.19 38.34 58.73 81.76 58.73 81.76s-.02-33.57 35.77-80.73c41.12 25.49 58.62 80.77 58.62 80.77s2.98-50.29-55.72-96.58m-241.67 204.71c-7.83-43.95 17.09-77.04 28.3-89.35 54.45 46.72 61.12 91.6 61.12 91.6s2.05-41.8 56.93-91.51c58.4 46.63 59.76 92.98 59.76 92.98s17.54-57.75 61.04-91.32c11.76 13.18 38.8 49 30.82 91.52 0 0 32.98-59.52-23.9-107.85l-5.17-4.8s-42.82 24.82-59.96 78.86c-17.9-57.15-62.43-84.25-62.43-84.25s-41.9 22.92-58.95 79.84c-18.7-50.68-60.7-76.04-60.7-76.04s-1.89 1.05-5.23 4.62c-55.48 59.46-21.63 105.7-21.63 105.7m38.72 122.25s-24.7-67.69-.16-98.42c62.14 56.03 66.99 96.32 66.99 96.32s-2.57-57.19 42.52-95.16c42.9 40.58 38.64 96.88 38.64 96.88s16.92-46.05 72.23-94.32c21.99 33.6-6.77 95.48-6.77 95.48 52.88-57.58 16.03-112.32 15.61-112.9l-4.54-6.11s-50.35 29.37-69.18 81.85c-2.34-54.22-45.52-87-45.52-87s-40.82 27.94-48.05 83.5c-24.72-56.27-65.13-81.7-65.13-81.7l-4.76 5.41c-.46.5-39.81 49.5 8.12 116.17m-135.27 269.94c-37.95 25.03-11.02 61.46-11.02 61.46 32.12-34.46 11.02-61.46 11.02-61.46m1030.6-163.97c-36.2-36.06-85.6-60.92-143.73-62.46 62.27 43.38 131.84 105.75 146.15 206-40.71-42.26-89.73-83.35-144.51-102.08 22.76 26.19 40.55 74.64 40.55 162.64 0 0-139.34-204.41-320.17-249.3-26.63-6.63-58.72 9.93-102.21-12.09-110.9-56.22-111.29 48.49-100.29 136.56 24.58 197.64-79.05 319.6-209.21 325.69-111.15 5.2-172.4-63.72-192.5-91.57-1.38 19.71-11.24 71.56-76.62 76.12 0 0 33.92-42.57 24.42-121.54-9.48-78.97-10.91-125.89 37.57-130.7 0 0-2.93-116.62 84.37-77.08 0 0-25.08 2.46-30.2 30.72-6.43 35.27.35 59.46 5.49 71.54 2.56-21.22 8.65-46.58 23.88-69.7 28.95-43.99 40.82-78.32 24.55-94.39-16.27-16.08-32.61.39-31.25 6.92 0 0 18.36 4.05 12.93 17.56-5.44 13.45-29.29 16.25-38.96-5.56-7.74-17.36-3.56-44.89 23.76-55.91 28.54-11.51 60.43 5.78 68.77 34.04 8.25 27.95-7.58 60.13-25.3 82.77-21.41 27.36-36.31 53.4-47.04 89.95 10.95-4.75 31.8-17.72 43.02-50.66 0 0 24.15 43.36-22.12 90.62 0 0-.26 1.09-.64 2.97 5.13 22.24 19.46 60.23 58.08 65.22 40.86 5.27 64.68-29.9 73.99-65.77 10.39-39.96 10.79-93.61-1.27-144.2-9.16-38.51-53.01-167.3-147.41-154.44-45.36 6.18-75.96 43.62-133.93 43.39-28.51-.1-29.86-6.39-57.09-.46-184.16 39.98-320.17 249.3-320.17 249.3 0-88 17.79-136.45 40.55-162.64-54.77 18.73-103.8 59.82-144.5 102.08 14.32-100.25 83.85-162.62 146.11-206-58.1 1.54-107.49 26.4-143.69 62.46 18.29-82.89 89.74-139.31 160.97-157.44-32.73-8.67-86.51 8.37-116.18 23.13 29.15-62.49 96.54-100.6 158.62-118.2-38.58-14.22-88.87 1.47-122.83 13.15 43.22-73.39 100.6-96.96 204.73-108.42-32.28-22.92-95.37-15.53-130.16-8.34 38.96-55.92 105.34-74.53 190.2-58.17-21.55-26.27-62.45-38.11-102.87-50.28 34.9-28.46 108.89-29.03 163.63-8.17-7.18-24.54-56.07-52.09-105.9-57.26 37.25-31.25 129.83-29.78 176.69 2.08-8.11-36.27-47.03-48.92-82-65.19 41.49-10.25 106.65-3.87 147.68 12.43 2.74-18.98 9.31-38.08 22.38-54.51-13.46.49-25.5-.41-37.2-1.29-26.89-2.05-50.15-3.81-86.87 11.24l-17.34 7.1 4.71-18.15c.96-3.55 19.7-71.25 103.26-111.829-25.47-.48-63.48 5.481-102.2 35.969l-18.02 14.211 2.96-22.801c.18-1.308 17.77-126.39 130.92-142.781 6.95-16.18 20.62-25.641 31.96-30.098-2.48-38.601 22.54-58.101 45.97-63.132 22.45-4.789 44.38.761 63.38 16.132 2.87 2.297 6.59 5.821 10.24 9.649 9.48-19.36 32.29-47.942 84.44-47.942 1.85 0 3.72.012 5.65.133 38.84 1.469 65.68 24.91 80.59 48.578 13.44-17.16 36.77-28.578 64.41-29.121.71-.027 1.42-.078 2.12-.078 39.25 0 68.4 22.899 78.22 61.629 2.96 11.813 3.91 22.672 3.09 32.672 129.41 4.871 148.96 142.961 149.13 144.359l2.95 22.801-18.05-14.211c-38.7-30.488-76.72-36.449-102.18-35.969 83.59 40.579 102.29 108.279 103.25 111.829l4.72 18.15-17.35-7.1c-36.7-15.05-59.98-13.29-86.89-11.24-11.71.88-23.72 1.78-37.18 1.29 13.05 16.43 19.64 35.53 22.4 54.51 41.01-16.3 106.18-22.68 147.69-12.43-34.97 16.27-73.94 28.92-82.07 65.19 46.92-31.86 139.49-33.33 176.73-2.08-49.85 5.17-98.71 32.72-105.9 57.26 54.77-20.86 128.71-20.29 163.64 8.17-40.4 12.17-81.34 24.01-102.88 50.28 84.84-16.36 151.22 2.25 190.19 58.17-34.79-7.19-97.88-14.58-130.17 8.34 104.15 11.46 161.53 35.03 204.76 108.42-33.97-11.68-84.23-27.37-122.84-13.15 62.07 17.6 129.48 55.71 158.62 118.2-29.67-14.76-83.48-31.8-116.21-23.13 71.27 18.13 142.76 74.55 161.01 157.44m-706.79-653.62c-10.09-12.66-14.69-27.07-10.97-35.77.09.11.11.25.22.36 6.07 8.5 15.42 17.88 24.97 24.77 0 0-5.09-14.46-9.35-33.01 12.79 1.51 21.35 17.56 27.07 28.72 5.27 10.25 17.69 40.96 19.76 48.59-14.24-4.16-40.93-20.12-51.7-33.66m102.04-62.319c-1.61-2.621-12.7-12.359-23.84-19.359 8.98-2.422 21.82 1.136 31.47 4.949 11.91 4.73 28.15 15.23 49.63 32.68 0 0-37.27 5.949-65.64-2.34-6.22-1.84-21.28-9.34-24.82-19.102 19.53 3.832 33.2 3.172 33.2 3.172m-203.39 43.749c0-5.16.45-18.84 5.78-27.179 5.17 21.279 13.24 38.379 13.24 38.379s7.46-15.98 12.77-36c4.71 7.71 6.22 18.21 6.22 22.7 0 36.09-18.99 68.69-18.99 68.69s-19.02-30.83-19.02-66.59m221.22-132.179c8.83-5.66 22.53-8.832 34.39-7.929 29.61 2.297 59.89 27.117 59.89 27.117s-27.23-5.879-58.05-.098c-20.64 3.867-39.19 8.801-44.1-.672 21.65-8.929 38.11-11.25 38.11-11.25s-12.19-5.347-30.24-7.168M1203.6 1870.53s5.61-5.81 11.91-12.24c16.28 10.09 33.87 20.43 52.64 30.87-.14 9.02-.11 19-.11 19a1297 1297 0 0 1-64.44-37.63m262.49-110.76c4.89-3.88 9.91-7.7 15.01-11.43 64.41 25.25 138.61 48.51 221.91 65.52-6.99 3.3-13.2 7.65-18.5 13.05-80.69-17.54-153.62-41-218.42-67.14m43.01-30.68c5.93-3.79 11.98-7.45 18.11-10.96 57.39 20.67 120.48 38.83 189.11 52.48-2.18 5.24-4.06 10.56-5.51 15.81-73.6-14.81-140.92-34.71-201.71-57.33m1263.17-139.81c18.76-13.89 34.62-26.55 47.44-37.28 2.08 5.54 4.16 11.05 6.15 16.5-12.85 10.61-28.38 22.86-46.45 36.12zM2488.91 101.102c-9.27-2.493-14.69-11.98-12.25-21.243 2.46-9.27 11.92-14.8 21.17-12.238 9.27 2.469 14.81 11.93 12.31 21.23-2.47 9.22-11.96 14.751-21.23 12.251M1645.49 1679.12c.14 0 .25.01.37.01 6.25.88 14.81 2.07 27.74 2.11 13.04 0 24.72-1.59 35.52-4.02 14.38 3.06 29.07 5.88 43.94 8.52-.97 5.53-1.22 11.17-.87 16.77-37.08-6.53-72.71-14.41-106.7-23.39m86.76 65.64c-61.23-11.54-118.12-26.74-170.7-44.22 7.9-3.54 15.96-6.72 24.1-9.63 50.5 15.91 104.96 29.59 163.25 39.9-5.19 3.09-10.03 6.81-14.42 11.3-.81.82-1.46 1.77-2.23 2.65m116.84-667.16c2.11-7.63 14.52-38.34 19.8-48.59 5.71-11.16 14.27-27.21 27.1-28.72-4.3 18.55-9.37 33.01-9.37 33.01 9.52-6.89 18.88-16.27 24.98-24.77.05-.11.11-.25.19-.36 3.72 8.7-.87 23.11-10.96 35.77-10.78 13.54-37.48 29.5-51.74 33.66m-187.38 819.38c-.06 5.5.08 11.24.38 17.17-104.18-23.35-193.79-55.63-267.31-88.65 3.99-4.21 8.06-8.46 12.33-12.74 70.63 31.34 155.94 61.83 254.6 84.22m904.37-1428.929a17.334 17.334 0 0 1 9.97 22.449c-3.44 8.922-13.45 13.41-22.41 9.98-9.01-3.41-13.44-13.519-10-22.468 3.43-8.942 13.49-13.391 22.44-9.961m4.49-343.129c-9.15-2.91-14.15-12.641-11.31-21.774 2.86-9.156 12.58-14.257 21.71-11.316 9.14 2.898 14.25 12.566 11.35 21.738-2.9 9.129-12.62 14.231-21.75 11.352m159.84 1340.808c15.45-11.39 29.28-22.14 41.23-31.87 2.3 5.29 4.64 10.58 6.88 15.83-11.65 9.41-24.93 19.65-39.64 30.45zm-923.26-468.179c-28.36 8.289-65.63 2.34-65.63 2.34 21.49-17.45 37.74-27.95 49.63-32.68 9.68-3.813 22.5-7.371 31.49-4.949-11.12 7-22.26 16.738-23.83 19.359 0 0 13.63.66 33.18-3.172-3.57 9.762-18.61 17.262-24.84 19.102m128.7 1491.529c-17.22-9.22-16.54-9.5-36.53-13.58 0-4.53 57.01-9.03 84.88-9.03 27.83 0 85.35 4.5 85.35 9.03-20.06 4.08-19.32 4.36-36.6 13.58-17.46 9.27-32.13 8.9-48.51.36-16.46 8.54-31.14 8.91-48.59-.36m-750.47-599.62c24.38 15.67 51.92 32.17 82.66 48.85v18.06c-35.33-18.82-66.78-37.49-94.09-55.04zm1416.7-30.13c-112.09 52.61-264.77 105.52-451.99 126.24 2.68-5.74 5.14-11.62 7.47-17.59 173.49-20.36 318.47-68.95 432.52-122.14 4.21 4.63 8.23 9.14 12 13.49m46.46 58.35 8.23 12.06c-131.17 65.84-329.75 138.74-583.3 153.15 7.29-5.6 14.32-11.57 21.03-18.05 239.07-16.96 427-86.13 552.78-148.96.69 1.01 1.18 1.71 1.26 1.8m-982.24 43.45c-120.37-26.03-221.79-63.89-302.04-101.5 3.56-4.24 7.38-8.64 11.35-13.13 77.35 35.93 174.26 71.91 288.78 97.14.57 5.68 1.21 11.5 1.91 17.49m832.26-201c-90.63 36.53-196.77 67.8-317.52 84.83.17-5.58.22-11.2.17-16.86 114.19-16.29 215.03-45.5 301.82-79.7a657 657 0 0 1 15.53 11.73m-43.18-30.66c-80.71 30.01-172.7 55.21-275.37 69.94-.41-5.49-.91-11.05-1.5-16.62 95.91-13.79 182.32-36.83 258.77-64.38 6.13 3.53 12.16 7.26 18.1 11.06m115.04 95.5c-108.75 49.1-243.7 92.87-402.83 112.89 1.59-5.71 3.04-11.51 4.35-17.36 151.73-19.75 281.09-61.31 385.98-108.07 4.3 4.23 8.45 8.4 12.5 12.54m-34.1-32.91c-99.69 42.77-219.84 80.12-358.95 98.95.78-5.62 1.43-11.31 1.98-17.07 132.37-18.3 247.21-53.56 343.19-94.07 4.7 4.04 9.3 8.11 13.78 12.19m196.25-276.66c21.76-15.61 40.41-30.15 55.7-42.71 2.24 5.39 4.48 10.76 6.64 16.09-14.79 12.05-32.44 25.66-52.72 40.22-3.01-4.62-6.22-9.16-9.62-13.6m21.94 35.85c-.07-.14-.09-.19-.12-.28 19.53-14.32 36.26-27.52 49.9-38.88 2.16 5.47 4.29 10.91 6.41 16.3-13.71 11.26-30.13 24.09-49.16 37.92zm27.47 337.04 12.14 12.6c-27.3 17.67-58.6 36.34-93.71 55.15v-19.72c30.24-16.42 57.45-32.63 81.57-48.03m-84.88-48.8c7.74-4.36 15.22-8.68 22.51-13 4.41 3.85 8.86 7.94 13.34 12.14-10.88 6.53-22.24 13.15-34.07 19.77-.45-6.48-1.07-12.77-1.78-18.91m54.99 17.95c3.4 3.39 11.95 12.22 11.95 12.22-19.5 12.15-40.7 24.64-63.63 37.19 0 0-.04-14.46-.15-18.97 18.47-10.31 35.75-20.48 51.83-30.44m-70.55 108.53c-146.64 75.58-385.9 164.82-698 164.82-11.43 0-22.61-.26-33.88-.48 24.53-2 48.15-7.66 70.33-16.73 279.32-6.28 499.31-83.87 651.66-162.08zm-50.69-71.98c-120.71 58.75-293.3 120.64-509.29 139.98 4.29-5.79 8.32-11.85 12.15-18.02 198.85-19.63 362.12-75.79 485.98-135.87 4.14 5.06 7.85 9.71 11.16 13.91M1288 1966.84l8.69-13.42c85.1 43.53 201.64 91.53 345.93 123.65l-11.43 14.35c-137.33-31.47-252.26-77.95-343.19-124.58m643.97-80.41c-.9 5-1.94 9.84-3.17 14.49-.14.61-.33 1.31-.56 2.08-21.22-.8-42.02-2.05-62.46-3.72 3.3-5.44 6.01-10.82 8.14-16.05 19.03 1.43 38.36 2.51 58.05 3.2m471.34-185.67c-68.69 22.83-144.72 41.78-227.84 53.65-.56-5.89-1.02-11.43-1.34-16.65 74.4-10.67 142.98-27.07 205.65-46.85 7.93 2.99 15.8 6.27 23.53 9.85m-512.96 245.19c-1.42 0-2.89-.11-4.4-.3-11.07-1.42-18.84-8.72-24.35-17.99 17.61 1.45 35.56 2.61 53.77 3.45-6 8.28-14.16 14.84-25.02 14.84m-221.73-93.48c-1.86 5.03-3.28 10.41-4.34 16.09-90.05-20.44-169.04-47.69-236.01-76.28 4.42-4.13 8.97-8.23 13.63-12.33 64.77 27.21 140.65 53.01 226.72 72.52m-332.28 42.16c3.08-4.07 6.54-8.59 10.39-13.48 83.22 40.15 191.45 81.73 321.92 109.47.06 6-.16 11.61-.62 16.97-134.87-28.44-246.38-71.52-331.69-112.96m-24.96 36.2 8.91-13.7c.02-.04.15-.24.25-.37 86.08 42.92 201.49 88.75 342.83 118.74-1.62 6.14-3.44 11.43-5.25 15.92-143.09-30.54-259.83-77.11-346.74-120.59m989.69-250.22c5.51 0 10.62-.27 15.46-.55-45.06 11.83-92.84 21.71-143.24 28.99.1-6.34.4-11.99.89-16.97 30.69-4.5 60.44-9.94 89.14-16.28 15.12 4.1 28.11 4.81 37.75 4.81m-365.41 160.56c0 5.64-.16 11.16-.46 16.65-18.3-.62-36.29-1.64-54.03-2.89.62-5.87.68-11.43.39-16.57 17.73 1.25 35.75 2.2 54.1 2.81m260.78-188.34c4.09 0 10.25.82 18.89 3.66-11.15 2.06-22.45 3.94-33.88 5.69 1.15-2.1 2.29-3.76 3.33-4.95 2.01-2.3 4.82-4.4 11.66-4.4m-322.32 139.48c19 1.49 38.35 2.6 58.01 3.31.84 5.58 1.52 11.15 2.06 16.76-19.94-.7-39.54-1.8-58.82-3.27-1.75-4.63-3.25-7.42-3.56-7.91l-1.88-3.42c1.12-1.52 2.27-2.98 3.47-4.51.22-.3.51-.69.72-.96m-58.02 313.07c20 10 43.16 18.12 69.65 22.44-61.73-3.72-120.3-10.83-175.72-20.51 8.91-3.42 16.81-7.74 23.73-12.85 26.68 4.25 54.1 7.95 82.34 10.92m82.95-356.75c7.38.45 14.85.8 22.31 1.16 2.11 6.23 3.8 11.95 5.07 16.89-11.74-.48-23.39-1.11-34.9-1.88l2.1-3.69c1.95-3.94 3.75-8.15 5.42-12.48m-627.95 92.9c-.66 5.9-1.2 11.95-1.64 18.18-12.14-6.78-23.76-13.52-34.89-20.21 4.29-4.01 8.54-8.01 12.77-11.75 7.68 4.58 15.61 9.17 23.76 13.78M1160.39 217.34c-8.69 4.019-18.98.25-23.03-8.449-4.07-8.672-.38-18.981 8.37-23 8.67-4.039 18.98-.352 23.06 8.359 4.01 8.711.29 19.02-8.4 23.09m-41.85 434.012c-8.03 5.218-18.8 2.937-24.03-5.114-5.22-8.027-2.91-18.738 5.15-23.988 8.05-5.25 18.78-2.93 24 5.109 5.2 8.012 2.93 18.762-5.12 23.993m296.03-150.84c-8.95 3.468-19.01-1.043-22.45-10.012-3.44-8.93 1.07-18.949 10.03-22.41 8.95-3.43 18.97 1.058 22.43 10 3.39 8.93-1.04 18.98-10.01 22.422m-361.67-23.621-25.35 16.461c-17.83 11.589-25.46 24.027-16.65 37.589 8.8 13.547 23.27 11.649 41.11.11l25.33-16.512zm-33.94-52.2-26.327 17.11c-15.848 10.23-20.262 19.937-13.262 30.769 7 10.77 17.637 10.66 33.459.352l26.37-17.102zm-30.073 127.36c-12.086-18.582-9.559-34.531 5.168-49.789l-.328-.492c-15.586 5.14-32.129-1.629-40.442-14.411-11.226-17.339-7.246-45.3 21.848-64.199l62.277-40.43 2.28 3.481c-5.28 4.519-5.55 6.84-2.79 11.109l72.75 111.969c2.75 4.262 4.99 4.949 11.28 1.941l2.27 3.532-67.02 43.57c-27.65 17.918-54.55 13.25-67.293-6.281m40.683 118.347a17.395 17.395 0 0 1 24.28 3.852c5.58 7.738 3.9 18.602-3.88 24.262-7.74 5.629-18.62 3.91-24.25-3.864-5.64-7.738-3.89-18.589 3.85-24.25m-67.425 51.75c7.464-6.027 18.363-4.867 24.402 2.582 6.031 7.45 4.883 18.352-2.582 24.418-7.438 6.043-18.391 4.864-24.418-2.566-6.031-7.441-4.867-18.383 2.598-24.434M1337.7 532.371c-8.74 3.91-19.05-.062-22.93-8.812-3.91-8.778.05-19 8.83-22.93 8.78-3.891 19 .062 22.91 8.82 3.87 8.731-.02 18.992-8.81 22.922m60.36-407.48c-9.14 2.879-18.84-2.211-21.74-11.352-2.87-9.141 2.12-18.86 11.29-21.707 9.16-2.871 18.9 2.11 21.77 11.309 2.87 9.121-2.15 18.879-11.32 21.75m-135.46 443.3c-8.53 4.36-19.01.95-23.37-7.621-4.33-8.519-.91-18.961 7.62-23.34 8.57-4.339 19-.941 23.35 7.61 4.33 8.531.97 18.969-7.6 23.351m-24.35-385.132c-8.88 3.671-18.97-.579-22.66-9.399-3.66-8.879.47-18.988 9.38-22.629 8.83-3.652 18.98.469 22.64 9.367 3.67 8.84-.49 18.993-9.36 22.661m80.84 167.691c-14.26 5.879-29.93-.961-35.71-15.051-5.8-14.039.6-29.738 14.85-35.558 14.24-5.903 30.02.679 35.79 14.73 5.82 14.027-.69 30-14.93 35.879m-1.56-198.52c-9 3.29-18.92-1.39-22.23-10.39-3.28-9.02 1.31-18.949 10.34-22.192 9.01-3.257 18.96 1.301 22.25 10.332 3.24 9.02-1.35 18.969-10.36 22.25m-795.1 515.93c-7.082-6.5-7.602-17.422-1.067-24.48 6.453-7.051 17.391-7.571 24.5-1.09 7.028 6.48 7.547 17.441 1.067 24.531-6.481 7.039-17.446 7.5-24.5 1.039m275.05-230.621c-7.601 5.801-18.457 4.352-24.308-3.23-5.84-7.598-4.457-18.477 3.199-24.309 7.602-5.809 18.469-4.43 24.32 3.18 5.797 7.621 4.391 18.48-3.211 24.359m-90.781 51.051c-6.152-7.328-5.25-18.25 2.149-24.391 7.34-6.14 18.25-5.25 24.429 2.102 6.125 7.359 5.223 18.301-2.132 24.449-7.344 6.148-18.266 5.172-24.446-2.16M640.09 719.922l100.652 87.769c3.828 3.321 6.153 3.418 10.375-.05l3.16 2.73-26.742 30.711-3.172-2.75c2.489-4.203 2.106-6.543-1.722-9.863l-78.067-68.078-.41.429c14.246 25.121 37.199 112.66 41.016 116.02 2.281 1.969 4.511.332 6.918-1.539l3.172 2.75-28.739 32.969-3.172-2.758c1.914-3.532 2.188-5.282-2.296-9.16L560.41 811.328c-3.812-3.367-6.152-3.418-10.199-.168l-3.145-2.762 26.77-30.679 3.144 2.781c-2.652 4.43-2.296 6.719 1.532 10.051l70.859 61.789.371-.449c-8.176-11.129-34.808-103.063-38.664-106.422-1.34-1.18-2.598-.668-5.551 2.312l-3.172-2.793 32.469-37.207 3.16 2.758c-2.078 3.742-1.722 6.051 2.106 9.383m-58.871-114.274c-6.781-6.808-6.821-17.738 0-24.5 6.781-6.769 17.746-6.796 24.543-.027 6.738 6.77 6.765 17.75 0 24.539-6.797 6.738-17.762 6.738-24.543-.012M866.086 387.23c-7.848 5.461-18.648 3.551-24.145-4.269-5.496-7.871-3.664-18.68 4.239-24.121 7.847-5.488 18.648-3.66 24.156 4.211 5.473 7.859 3.609 18.668-4.25 24.179M642.688 545.75c-6.481-7.07-6.043-18 1.066-24.469 7.082-6.472 18.019-6.031 24.5 1.051 6.453 7.059 6.016 18.02-1.039 24.5-7.098 6.449-18.047 5.957-24.527-1.082m278.097 105.07 2.75 3.172-81.84 71.078c-5.195 4.532-6.386 6.77-4.129 10.789l-3.144 2.731-23.57-27.149 3.144-2.73c3.637 2.809 6.016 1.879 11.238-2.621l51.954-45.168-28.274-32.543-28.918 25.121c-5.18 4.539-6.41 6.781-4.523 10.289l-3.188 2.781-23.172-26.672 3.172-2.777c3.637 2.82 6.016 1.938 11.223-2.57l28.93-25.16-25.551-29.379-48.809 42.437c-5.18 4.473-6.398 6.742-4.539 10.281l-3.172 2.739-23.144-26.649 3.129-2.761c3.636 2.793 6.043 1.882 11.238-2.598l79.094-68.742 2.746 3.14c-5.95 6.403-5.907 8.743-2.571 12.571l87.61 100.832c3.336 3.828 5.633 4.187 12.316-.442m88.735-354.949c-8.27 4.758-18.872 1.891-23.668-6.402-4.786-8.297-2.024-18.887 6.316-23.649 8.312-4.789 18.892-2 23.702 6.34 4.79 8.289 1.95 18.871-6.35 23.711m74.58-40.91c-8.49 4.379-18.94 1.059-23.38-7.43-4.43-8.492-1.19-18.949 7.37-23.34 8.49-4.421 18.95-1.191 23.39 7.34 4.4 8.5 1.12 18.957-7.38 23.43M936.797 339.98c-8.094 5.11-18.758 2.731-23.926-5.339-5.156-8.09-2.832-18.809 5.289-23.891 8.082-5.141 18.801-2.84 23.953 5.27 5.129 8.082 2.805 18.789-5.316 23.96M801.813 896.301c7.097 6.41 7.699 17.359 1.273 24.48-6.398 7.168-17.418 7.719-24.527 1.321-7.125-6.403-7.684-17.391-1.274-24.532 6.442-7.121 17.406-7.679 24.528-1.269m120.203-117.653c6.386 7.141 5.812 18.09-1.297 24.532-7.137 6.422-18.129 5.84-24.555-1.258-6.398-7.141-5.812-18.102 1.313-24.551 7.136-6.43 18.101-5.832 24.539 1.277m-61.645 57.262c6.754 6.781 6.766 17.75-.027 24.531-6.754 6.809-17.785 6.778-24.555.039-6.781-6.781-6.754-17.789.012-24.582 6.824-6.769 17.773-6.769 24.57.012M1917.35 378.891c.48 9.55-6.83 17.711-16.44 18.23-9.57.539-17.75-6.859-18.27-16.441-.5-9.59 6.91-17.711 16.48-18.231 9.58-.5 17.7 6.871 18.23 16.442m236.5-9.77c9.56 1.02 16.45 9.52 15.44 19.09-1.01 9.5-9.51 16.43-19.09 15.418-9.54-.949-16.46-9.57-15.45-19.078.99-9.551 9.57-16.442 19.1-15.43m84.29 11.109c9.5 1.489 15.91 10.36 14.42 19.848-1.52 9.442-10.35 15.922-19.86 14.41-9.49-1.449-15.93-10.418-14.44-19.867 1.49-9.473 10.42-15.902 19.88-14.391m-83.91-338.16c-9.55-.82-16.58-9.218-15.73-18.82.8-9.54 9.16-16.59 18.73-15.719 9.54.848 16.65 9.2 15.8 18.79-.86 9.511-9.24 16.609-18.8 15.75m-85.13 320.378c9.6.492 16.93 8.672 16.43 18.242-.54 9.571-8.65 16.911-18.26 16.411-9.57-.454-16.96-8.672-16.45-18.243s8.69-16.91 18.28-16.41m.26-325.93c-9.58-.43-16.97-8.519-16.58-18.109.43-9.57 8.47-17 18.07-16.539 9.54.438 17.01 8.461 16.57 18.09-.41 9.527-8.48 17.02-18.06 16.558m38.7 93.762c-.3 3.559 4.5 12.879 6.27 17.801l43.62 113.988-1.76 25.711-4.18-.32c-.65-3.621-2.32-5.551-7.41-5.859l-93.19-6.352c-5.07-.301-7 1.34-8.12 4.859l-4.19-.257 2.52-37.332 4.18.25c.55 5.14 2.23 7.082 7.3 7.378l73.5 4.981-49.01-123.02c-1.76-4.64-3.02-8.308-8.67-9.277l.29-4.203 45.39 3.09-.26 4.179c-3.61.032-6.17 1.973-6.28 4.383m213.7 265.418c9.37 2 15.34 11.211 13.34 20.59-2 9.371-11.18 15.34-20.59 13.352-9.41-1.95-15.37-11.211-13.37-20.59 1.97-9.379 11.24-15.34 20.62-13.352m82.66 19.832c9.29 2.508 14.76 12 12.27 21.301-2.51 9.207-12 14.738-21.27 12.227-9.3-2.43-14.77-12.008-12.31-21.258 2.49-9.27 12.05-14.731 21.31-12.27m1.85-334.652c-9.35-2.09-15.2-11.328-13.15-20.68 2.05-9.379 11.27-15.3 20.65-13.168 9.33 2.09 15.3 11.258 13.2 20.668-2.1 9.34-11.33 15.27-20.7 13.18m-421.96-46.2c-9.59-.019-17.3-7.788-17.34-17.39 0-9.578 7.71-17.36 17.32-17.289 9.56 0 17.37 7.7 17.37 17.352-.02 9.539-7.76 17.328-17.35 17.328m338.54 29.62c-9.43-1.698-15.68-10.679-14.06-20.128 1.67-9.453 10.6-15.762 20.06-14.031 9.45 1.668 15.78 10.59 14.1 20.07-1.69 9.41-10.67 15.75-20.1 14.09m35.44 114.621c-16.71-3.473-33.39 1.609-36.75 17.75-3.37 16.129 9.87 27.449 26.55 30.898 16.76 3.5 33.38-1.59 36.76-17.699 3.35-16.109-9.88-27.449-26.56-30.949m-45.91 85.258c-2.52 12 4.32 21.718 23.06 25.621 18.77 3.898 28.93-2.242 31.43-14.301 2.52-11.98-4.35-21.68-23.1-25.57-18.76-3.93-28.91 2.25-31.39 14.25m102.4-51.129c-3.8 18.168-15.75 30.051-34.1 32.949 12.39 8.09 17.88 24.219 14.96 38.301-4.4 21.109-27.89 35.5-66.3 27.461-35.48-7.371-51.06-30.832-46.55-52.532 2.63-12.609 14.71-25.07 27.7-27.23-14.88-10.75-21.38-26.469-17.58-44.668 4.92-23.453 31.83-41.082 71.39-32.852 38.69 8.051 56.11 31.579 50.48 58.571M2238.79 51.34c-9.51-1.262-16.16-9.969-14.93-19.469 1.26-9.52 9.9-16.223 19.42-14.89 9.5 1.238 16.23 9.878 14.96 19.43-1.26 9.48-9.96 16.21-19.45 14.929m-332.76 199.41c5.08-.32 6.73-2.238 7.37-5.879l4.22-.32 2.43 35.828-4.18.301c-1.14-3.508-3.07-5.18-8.13-4.848l-100.37 6.898-.26-4.179c3.26-.211 5.81-2.5 5.41-8.211l-3.13-45.668c-.27-4.211-3.04-4.902-6.24-3.453l-.15-2.399 29.96-26.679 2.49 1.031c-2.96 9.527 13.04 15.34 25.02 14.488 17.61-1.199 31.13-14.14 29.91-32.051-1.32-19.117-15.69-31.929-36.01-30.539-22.71 1.559-41.69 13.641-34.71 27.578l-3.49 1.993-22.82-30.801 3.38-3.211c1.83.461 3.36.93 5.44.781 3.31-.219 8.37-5.039 16.75-10.09 8.35-5.082 20.27-10.441 36.41-11.539 35.84-2.461 61.3 18.617 63.57 52.09 1.89 27.18-15.19 53.84-49.55 56.188-17.63 1.211-26.27-2.411-32.47-5.278l2.23 32.551zm-284.85 58.602c3.09-1.262 4.13-3.602 3.39-7.141-1.35-6.422-5.49-10.172-10.17-9.18-3.53.739-6.62 2.008-5.91 5.52l-4.07.847-7.75-36.918 4.1-.839c2 6.609 11.28 7.089 15.54 7.109l-20.6-98.441c-1.16-5.547-3.95-7.11-8.63-6.149l-.84-4.082 42.16-8.859.86 4.101c-3.5.77-5.43 3.289-4.28 8.84l27.42 130.68c1.14 5.57 3.92 7.129 7.45 6.422l.87 4.07-38.69 8.117zm24.58-245.051c-9.43 1.64-18.37-4.68-20.07-14.11-1.66-9.441 4.57-18.43 14.03-20.05 9.45-1.66 18.46 4.57 20.13 14.058 1.64 9.41-4.63 18.43-14.09 20.102m7.89 365.359c-9.35 2.039-18.6-3.988-20.59-13.371-1.99-9.359 4.04-18.559 13.41-20.559 9.41-2 18.57 3.981 20.59 13.372 1.97 9.347-3.99 18.57-13.41 20.558m-160.66 43.082c-9.13 2.969-18.93-2.031-21.9-11.172-2.95-9.09 2.07-18.879 11.19-21.84 9.14-2.96 18.89 2.02 21.87 11.149 2.93 9.082-2.02 18.883-11.16 21.863m79.77-23.64c-9.26 2.507-18.79-3.032-21.26-12.27-2.49-9.273 3.05-18.762 12.3-21.25 9.28-2.492 18.75 3.008 21.26 12.277 2.45 9.231-3.01 18.762-12.3 21.243m-10.42-368.211c-9.35 2.058-18.57-3.852-20.67-13.22-2.08-9.331 3.77-18.6 13.16-20.64 9.35-2.07 18.62 3.758 20.72 13.168 2.02 9.32-3.83 18.621-13.21 20.692m252.08-38.82c-9.57.84-17.94-6.231-18.81-15.77-.82-9.551 6.15-17.98 15.75-18.77 9.54-.82 17.96 6.18 18.81 15.778.82 9.492-6.21 17.96-15.75 18.761m-334.69 59.032c-9.27 2.457-18.75-3.051-21.24-12.301-2.46-9.25 2.95-18.762 12.25-21.192 9.25-2.48 18.75 2.93 21.26 12.223 2.44 9.25-3 18.777-12.27 21.27m334.61 268.019c9.57-.98 18.07 5.91 19.08 15.469.99 9.5-5.9 18.039-15.45 19.058-9.54 1.032-18.08-5.918-19.08-15.468-1.01-9.539 5.93-18.032 15.45-19.059m-78.86 45.399c-9.46 1.531-18.38-4.981-19.88-14.442-1.5-9.457 4.99-18.348 14.46-19.848 9.49-1.492 18.35 4.95 19.86 14.43 1.47 9.449-4.95 18.352-14.44 19.86m-5.63-363.18c-9.51 1.25-18.19-5.45-19.45-14.95-1.25-9.5 5.36-18.218 14.91-19.41 9.49-1.25 18.21 5.36 19.47 14.891 1.23 9.488-5.42 18.238-14.93 19.469m169.44-14.82c-9.59.41-17.63-7-18.08-16.598-.43-9.59 6.93-17.684 16.54-18.05 9.57-.403 17.68 6.948 18.1 16.577.38 9.531-6.98 17.66-16.56 18.07m586.64 403.18c9.13 2.981 14.11 12.742 11.14 21.871-2.98 9.078-12.76 14.11-21.88 11.129-9.14-2.937-14.12-12.789-11.15-21.898 2.97-9.129 12.77-14.071 21.89-11.102M1189.48 607.891c-8.3 4.808-18.94 1.941-23.74-6.371-4.78-8.29-1.91-18.899 6.38-23.711 8.34-4.797 18.92-1.938 23.73 6.371 4.76 8.289 1.94 18.879-6.37 23.711M2659.49 355.02c-14.18-5.969-20.38-21.911-14.5-35.93 5.87-14.031 21.52-20.551 35.73-14.59 14.2 5.969 20.68 21.781 14.78 35.789-5.89 14.012-21.76 20.691-36.01 14.731m-8.39-202.758c-8.99-3.313-13.59-13.231-10.34-22.231 3.27-9.043 13.18-13.73 22.16-10.359 9.03 3.277 13.73 13.16 10.42 22.199-3.28 9-13.25 13.66-22.24 10.391m2.31 371.269c-3.89 8.75-14.14 12.707-22.92 8.77-8.79-3.86-12.71-14.172-8.79-22.942 3.87-8.769 14.18-12.648 22.93-8.769 8.78 3.91 12.71 14.172 8.78 22.941m196.24 127.75c-8.06-5.16-10.31-15.98-5.1-24.031 5.23-8.031 15.99-10.27 24.03-5.059 8.06 5.239 10.32 15.957 5.08 24.008-5.19 8.012-15.94 10.352-24.01 5.082m-120.71-90.722c-4.36 8.5-14.77 11.953-23.36 7.543-8.56-4.301-11.94-14.821-7.57-23.352 4.34-8.539 14.82-11.891 23.37-7.539 8.55 4.359 11.93 14.789 7.56 23.348m230.16-264.688c-8.29-4.801-11.12-15.391-6.31-23.68 4.76-8.339 15.34-11.211 23.63-6.339 8.3 4.796 11.18 15.339 6.38 23.648-4.81 8.309-15.42 11.199-23.7 6.371m10.48 151.899-50.77 42.019 33.41 21.66 17.86-63.359zm28.33-12.309c-1.34 2.019-1.86 4.539-3.29 10.008L2961.6 576.73c-.55 2.5-1.75 7.079 1.37 9.45l-2.3 3.531-33.14-21.512 2.3-3.527c4.4 2.558 7.12 1.109 8.61-1.16.67-1.012 1.53-2.942 1.91-5.18l6.48-25.422-45.18-29.301-23.04 17.93c-1.89 1.231-2.95 2.32-3.77 3.609-1.15 1.723-.24 3.051 2.73 5.672l-2.27 3.52-34.15-22.141 2.25-3.527c3.11 1.289 4.75.949 9.21-2.613l103.63-81.207c6.66-5.301 8.71-6.793 9.69-8.34 1.63-2.492 1.08-4.981-2.5-7.684l2.27-3.496 41.97 27.18-2.29 3.5c-4.87-2.41-6.51-2.071-7.47-.551m-79.68 262.937c-7.79-5.578-9.47-16.5-3.85-24.238 5.63-7.75 16.51-9.449 24.28-3.828 7.75 5.656 9.43 16.488 3.81 24.27-5.62 7.707-16.47 9.488-24.24 3.796m-110-481.058c-8.67-4.059-12.39-14.379-8.37-23.078 4.06-8.68 14.36-12.473 23.02-8.371 8.67 4.078 12.5 14.328 8.41 23.05-4.06 8.688-14.37 12.469-23.06 8.399m-5.81 384.152c-4.79 8.27-15.37 11.156-23.7 6.317-8.34-4.75-11.15-15.411-6.35-23.739 4.78-8.281 15.4-11.07 23.72-6.308 8.31 4.808 11.13 15.398 6.33 23.73m-72.01-418.41c-8.88-3.691-13.02-13.812-9.4-22.672 3.68-8.859 13.8-13.101 22.62-9.379 8.84 3.688 13.11 13.77 9.42 22.668-3.69 8.832-13.81 13.039-22.64 9.383m154.13 71.879c-8.5-4.43-11.78-14.91-7.38-23.402 4.46-8.508 14.88-11.86 23.37-7.36 8.49 4.43 11.84 14.852 7.39 23.379-4.43 8.512-14.9 11.832-23.38 7.383m-357.71 942.349c33.46-19.36 63.4-38.99 89.65-57.83 2.94 4.7 5.84 9.45 8.74 14.16-24.26 17.37-51.55 35.38-81.76 53.24-5.06-3.55-10.61-6.73-16.63-9.57m86.23 95.94a1092 1092 0 0 0 66.24-46.64c2.72 4.9 5.42 9.82 8.1 14.75-18.41 13.94-39.19 28.69-62.14 43.74-3.9-4.16-7.95-8.14-12.2-11.85m434.45-490.148c-7.16-6.372-7.71-17.422-1.28-24.532 6.38-7.14 17.39-7.679 24.52-1.261 7.14 6.402 7.69 17.363 1.26 24.531-6.4 7.082-17.33 7.711-24.5 1.262m-63.24-54.032c-7.51-6.019-8.63-16.98-2.6-24.449 6.03-7.441 16.98-8.562 24.44-2.531 7.47 6.031 8.56 16.941 2.55 24.43-6.05 7.41-16.93 8.601-24.39 2.55m-419.35 474.85c27.06-16.68 51.49-33.31 73.18-49.19 2.84 4.78 5.66 9.59 8.5 14.42a1125 1125 0 0 1-68.01 45.92zm-57.31-64.7c31.92-18.14 60.8-36.67 86.46-54.66 3.02 4.65 6.06 9.3 9.08 13.97a1099 1099 0 0 1-81.95 52.12zm134.07 165.98c-.1-.14-.22-.3-.35-.44a1116 1116 0 0 0 57.66-41.62c2.62 4.98 5.25 9.96 7.86 14.99-16.58 12.74-35.31 26.33-55.99 40.27zm-67.5-57.29c32.03-19.63 60.36-39.18 84.86-57.45 2.76 4.84 5.52 9.72 8.27 14.58-22.35 16.65-47.89 34.26-76.36 52.01-5.4-3.31-10.97-6.4-16.77-9.14m590.99-347.211c-6.48-7.078-5.88-18.097 1.26-24.527 7.11-6.391 18.1-5.793 24.53 1.328 6.42 7.148 5.85 18.09-1.31 24.512-7.11 6.386-18.08 5.859-24.48-1.313m-57.28-60.347c-6.84-6.743-6.81-17.774-.03-24.543 6.78-6.778 17.77-6.75 24.55.023 6.81 6.789 6.78 17.77-.01 24.559-6.77 6.75-17.73 6.769-24.51-.039m-424.9 537.138c20.17-14.1 38.07-27.61 53.57-39.97 2.52 5.16 4.92 10.31 7.36 15.43-14.66 11.57-31.34 24.08-49.91 37.12-3.58-4.4-7.24-8.61-11.02-12.58m-17.72-38.44c19.66-13.62 37.27-26.74 52.78-38.91 2.55 5.06 5.14 10.09 7.65 15.15-15.08 11.78-32.1 24.36-50.91 37.38zm-24.21-311.09c.59.92 1.22 1.83 1.79 2.76 64.64-9.94 95.8-81.361 95.8-81.361-7.83 84.341-48.42 121.831-48.42 121.831 76.54-20.32 90.6-143.678 90.6-143.678 17.17 129.628-56.25 204.598-56.25 204.598 59.34-18.74 84.33-98.41 84.33-98.41-5.9 76.87-41.32 137.55-58.19 162.53 41.69-43.17 130.24-152.88 96.61-277.261-20.28-75.117-85.78-104.629-139.82-116.047 14.75 18.379 22.87 38.879 24.05 61.41 3.71 70.109-61.69 137.478-90.5 163.628m-656.84-563.23c-327.44 178.629-587.83 459.989-774.07 836.57-130.02 262.9-181.83 493.43-195.59 563.75 239 205.61 591.04 323.19 969.66 323.19 378.63 0 730.68-117.58 969.69-323.19-13.78-70.32-65.57-300.85-195.6-563.75-186.25-376.581-446.64-657.941-774.09-836.57m-747.33 399.602c1.18-22.531 9.3-43.031 24.07-61.41-54.06 11.418-119.58 40.93-139.87 116.047-33.6 124.381 54.99 234.091 96.66 277.261-16.9-24.98-52.31-85.66-58.21-162.53 0 0 24.99 79.67 84.33 98.41 0 0-73.42-74.97-56.22-204.598 0 0 14.05 123.358 90.59 143.678 0 0-40.61-37.49-48.43-121.831 0 0 31.16 71.421 95.79 81.361.6-.93 1.19-1.83 1.82-2.76-28.81-26.13-94.26-93.519-90.53-163.628m-170.21 665.598c-117.114 109.71-204.176 237.1-245.153 358.74-20.355 60.44-27.968 115.5-23.172 162.96.083.93.274 1.77.383 2.69 15.325-142.75 140.028-300.06 140.028-300.06-97.864 162.47-91.645 370.71-91.645 370.71 14.59-149.96 95.801-239.48 95.801-239.48-58.297 118.68-58.297 279.05-58.297 279.05 16.652-112.46 79.133-187.43 79.133-187.43-49.985 122.89-35.449 236.23-35.449 236.23 0-.77.039-1.57.093-2.33 1.735-87.36 37.379-188.86 98.958-289.68-17.69-13.94-34.864-28.27-51.297-42.95 4.757-27.73 30.977-168.74 101.197-358-3.51 3.21-7.08 6.27-10.58 9.55m275.49 572.23c-107.79-44.05-205.66-98.86-290.72-162.34-59.282 97.61-92.887 195.19-92.751 278 14.668 2.33 30.16 3.53 46.401 3.53 100.22 0 220.61-43.73 337.07-119.19m-453.416 191.73c64.039 68.35 156.026 104.5 266.026 104.5 155.61 0 323.48-71.06 464.47-195.57-46.17 34.37-172.81 117-361.83 151.23 0 0 226.98-81.22 270.71-170.77 0 0-181.18 158.3-443.6 143.71 0 0 254.08-18.76 358.21-177.02 0 0-131.2 112.44-314.46 118.7 0 0 142.15-17.55 251.37-149.63-127.83 86.58-262.6 137.23-374.55 137.23-76.014 0-138.522-23.33-180.959-67.48 14.765 39.63 36.422 75.03 64.613 105.1M1848.24 2398c46.83-51.25 98.66-70.18 135.66-70.18 46.93 0 94.99 25.28 136.54 70.57-7.82-42.99-5.51-95.89 21.91-160.79-51.92 4.51-104.78 6.9-158.45 6.9-45.39 0-113.34-3.73-157.53-6.97 21.24 51.63 27.45 68.59 24.06 142.97-.18 4.01-2.19 17.5-2.19 17.5m-84.79 311.98c0 1 0 7.42.03 16.81 26.44 11.48 69.81 45.34 94.17 106.71 47.25 12.42 93.02 17.77 126.25 17.77 33.22 0 79.01-5.35 126.27-17.77 24.36-61.36 67.72-95.23 94.17-106.7.03-9.43.03-15.84.03-16.82 0-204.43-116.39-357.16-220.47-357.16-104.06 0-220.45 152.73-220.45 357.16m51.33-347.55c-.96-13.2-4.79-44.77-20.29-41.32-18.6 4.12-25.08 44.78 17.89 90.68 0 0 3.91-28.44 2.4-49.36m-45.37 143.5c47.76-48.94 9.55-94.89 9.55-94.89-50.1 39.79-9.55 94.89-9.55 94.89m-73.96 127.45c60.84-20.67 58.49-82.68 58.49-82.68-81.16 10.34-58.49 82.68-58.49 82.68m-8.51 63.79c-7.41 54.44 43.51 77.41 43.51 77.41s-35.81-65.82 12.74-122.45c0 0-50.75 4.99-56.25 45.04m130.23 124.47s-7.96-53.94-70.81-70.03c0 0-3.17 55.12 70.81 70.03m166.73 208.21c51.51 0 213.96-63.85 298.77-187.7l-.39-2.46c-17.48 22.17-76.38 80.31-175.45 106.8 0 0 107.52-50.49 170.44-133.51-39.91 35.08-82.01 72.05-173.2 93.4 0 0 83.32-25.91 169.4-123.25v-.06c-88.82 73.24-225.84 93.2-289.57 93.2-62.24 0-194.28-19.18-283.12-88.31 89.25 90.06 236.56 128.67 236.56 128.67-112.06-3.92-188.68-50.85-226.22-80.46 90.32 92.69 221.48 127.54 221.48 127.54-131.18-14.9-210.85-81.94-241.23-112.86 86.3 118.13 242.24 179 292.53 179m-190.74-49.94s53.53 65.41 150.73 99.89c0 0-56.87 1.7-128.49-45.67 0 0 32.13 44.78 129.26 80.1 0 0-45.46-2.31-94.83-24.67 38.5 32.77 84.74 51.78 134.39 51.78 50.41 0 97.32-19.61 136.18-53.31-27.88 11.46-45.07 9.54-45.07 9.54 73.61-39.03 90.07-76.91 90.07-76.91-27.45 19.52-52.71 21.79-52.71 21.79 37.44-24.52 61.07-54.15 72.66-71.13-77.78 54.08-160.93 82.66-201.13 82.66-38.77 0-117.57-26.64-192.96-77.12.63 1.04 1.26 1.98 1.9 3.05m85.75 292.02c-1.93 97.27-50.17 168.95-79.78 208.77 17.5 2.48 35.31 4.48 53.27 6.24 10.45-28.4 27.06-81.67 27.06-81.67.72 40.9-10.38 81.39-10.38 81.39l-.46 1.68c14.21 1.2 28.58 2.19 43.03 2.97 12.72-50.43 18.02-102.04 18.02-102.04 4.71 41.04 3.83 99.27 3.83 99.27l-.82 3.82c12.53.46 25.13.65 37.74.79l13.8-122.54 11.95 122.55c13.27-.09 26.5-.31 39.58-.8l-.83-3.82s-.85-58.23 3.86-99.27c0 0 5.31 51.61 18.04 102.02 14.44-.76 28.8-1.75 43.01-2.95l-.42-1.68s-11.12-40.49-10.43-81.39c0 0 16.6 53.27 27.07 81.67 17.96-1.76 35.79-3.76 53.3-6.24-29.65-39.82-77.91-111.48-79.8-208.77zm234.05-63.7h-180.85l93.65 38.73h87.2zm168.52-511.06c-5.44-40.05-56.22-45.04-56.22-45.04 48.56 56.63 12.74 122.45 12.74 122.45s50.94-22.97 43.48-77.41m-130.19 124.47c73.97-14.91 70.8-70.03 70.8-70.03-62.84 16.09-70.8 70.03-70.8 70.03m63.24-270.94s-2.36 62.01 58.47 82.68c0 0 22.68-72.34-58.47-82.68m-25.06-139.66s-38.15 45.95 9.57 94.89c0 0 40.56-55.1-9.57-94.89m-15.51-89.93c-15.53-3.45-19.33 28.12-20.27 41.32-1.52 20.92 2.4 49.36 2.4 49.36 42.95-45.9 36.47-86.56 17.87-90.68m637.38 97.28c109.98 0 201.99-36.15 266.06-104.5 28.18-30.07 49.82-65.47 64.61-105.1-42.46 44.15-104.96 67.48-180.99 67.48-111.91 0-246.7-50.65-374.52-137.23 109.18 132.08 251.34 149.63 251.34 149.63-183.23-6.26-314.44-118.7-314.44-118.7 104.11 158.26 358.19 177.02 358.19 177.02-262.39 14.59-443.6-143.71-443.6-143.71 43.73 89.55 270.76 170.77 270.76 170.77-189.05-34.23-315.7-116.86-361.87-151.23 140.99 124.51 308.88 195.57 464.46 195.57m104.08-457.4c-85.07 63.28-182.91 117.88-290.57 161.76 116.19 75.1 236.23 118.6 336.17 118.6 16.25 0 31.75-1.2 46.43-3.53.1-82.48-33.19-179.61-92.03-276.83m252.36 110.64c4.78-47.46-2.83-102.52-23.2-162.96-40.96-121.64-128.01-249.03-245.13-358.74-2.33-2.21-4.73-4.23-7.03-6.38 69.3 187.67 95.28 327.25 99.97 354.83-16.93 15.14-34.61 29.83-52.88 44.18 61.15 100.44 96.48 201.45 98.24 288.45 0 .76.07 1.56.08 2.33 0 0 14.52-113.34-35.46-236.23 0 0 62.48 74.97 79.16 187.43 0 0 0-160.37-58.34-279.05 0 0 81.25 89.52 95.81 239.48 0 0 6.22-208.24-91.64-370.71 0 0 124.7 157.31 140.05 300.06.09-.92.26-1.76.37-2.69m-531.44-1286.2h3.89c46.26 0 199.99 10.5 236.49 145.59 41.68 154.25-77.6 282.05-115.66 318 43.01 81.32 78.59 160.26 107.82 233.46 17.41 14.46 34.59 29.5 51.38 45.23 120.69 113.12 210.62 244.94 253.17 371.24 21.55 63.9 88.5 274.28-70.57 438.81-72 74.44-171.64 115.53-291.52 115.53-171.82 0-357.16-81.36-508.48-223.11-4.37-4.1-8.5-8.33-12.8-12.48-39.45 6.8-77.82 12.1-118.53 16.29-8.72 18.73-15.19 36.35-19.78 52.95 6.6-4.08 15.75-6.03 19.92-6.03 26.12 0 42.61 16.75 45.25 45.96 1.72 19.23-.83 34.48-2.69 45.61-2.83 17.04-2.15 18.05 2.05 20.6 23.58 14.4 30.62 45.77 31.03 62.05.7 26.46-5.48 45.87-11.66 58.49 19.44 5.08 47.88 17.88 62.27 49.96 11.94 26.56 17.71 43.24 4.07 91.81 11.04 14.81 32.74 55.01-6.27 105.43l13.46 86.28-2.68 4.04c-18.72 28.16-41.31 53.55-65.87 76.08-23.37 98.44-81.56 177.42-156.53 215.08v40.95h53.82v88.68h-23.33c2.14 97.56 55.6 168.48 82.01 203.44l17.67 23.67-20.37 3.25c-66.97 10.66-137.52 16.09-209.68 16.09s-142.72-5.43-209.64-16.09l-20.39-3.25 17.68-23.66c26.42-34.97 79.85-105.89 81.98-203.45h-23.32v-88.68h53.81v-40.96c-74.99-37.7-133.25-116.65-156.6-215.14-24.53-22.53-47.09-47.89-65.79-76.01l-2.68-4.04 13.45-86.28c-38.97-50.42-17.3-90.62-6.23-105.43-13.67-48.59-7.87-65.25 4.03-91.81 14.4-32.08 42.85-44.88 62.28-49.96-6.18-12.62-12.36-32.03-11.65-58.49.4-16.28 7.42-47.65 31.05-62.05 4.18-2.55 4.87-3.56 2.05-20.63-1.87-11.12-4.42-26.35-2.69-45.58 2.62-29.19 19.11-45.96 45.22-45.96 3.53 0 12.8 1.78 21.16 6.76-5.63-19.52-13.13-40.14-19.84-52.63-41.51-4.25-82.35-9.95-122.48-16.92-4.1 4.01-8.12 8.07-12.36 12.06-151.32 141.75-336.65 223.11-508.48 223.11-119.9 0-219.503-41.09-291.483-115.53-159.059-164.53-92.149-374.91-70.574-438.81 42.547-126.3 132.48-258.12 253.137-371.24 17.95-16.79 36.27-32.82 54.89-48.16 29.04-72.38 64.2-150.28 106.64-230.56-38.12-35.98-157.34-163.76-115.64-317.97 36.48-135.09 190.23-145.59 236.46-145.59h3.89c8.29.031 17.03.031 26.06-.129 28.86-7.442 43.83-18.762 47.58-32.949 18.27-69.372 28.19-91.993 55.75-71.442 19.79-36.43-17.69-86.43-17.69-86.43s78.1 15.649 86.96 76.508c6.07 41.571-4.3 75.071-25.87 99.063-41.37 45.871-117.44 45.82-172.8 45.82h-3.88c-4.04 0-9.01.09-14.73.359-29.61 19.969-44.76 42.782-46.24 69.692-2.89 54.547 50.77 111.629 77.55 136.638 149.38-215.611 355.8-427.38 639.43-578.021 283.61 150.641 490.06 362.41 639.44 578.021 26.82-25.009 80.46-82.091 77.52-136.638-1.42-26.91-16.57-49.723-46.23-69.692-5.67-.269-10.7-.359-14.72-.359h-3.84c-55.38 0-131.46.051-172.8-45.82-21.6-23.992-31.99-57.492-25.9-99.063 8.86-60.859 86.98-76.508 86.98-76.508s-37.49 50-17.74 86.43c27.61-20.551 37.51 2.07 55.79 71.442 3.73 14.187 18.69 25.507 47.57 32.949 9.02.16 17.8.16 26.05.129m81.38 658.79-.29-.46c-2.8-4.74-5.7-9.21-8.62-13.62 17.06-12.3 32.33-24.03 45.58-34.7 2.4 5.23 4.78 10.45 7.13 15.64-12.9 10.28-27.59 21.47-43.8 33.14m934.77-502.161c-8.07 5.152-18.84 2.793-23.94-5.309-5.11-8.078-2.72-18.781 5.32-23.898 8.12-5.192 18.81-2.84 23.93 5.289 5.14 8.089 2.84 18.781-5.31 23.918m212.9 467.291c-9.12 2.88-18.89-2.18-21.78-11.34-2.83-9.13 2.27-18.84 11.33-21.71 9.22-2.92 18.9 2.12 21.74 11.32 2.9 9.14-2.1 18.84-11.29 21.73m-57.26-161.75c-8.84 3.63-19.03-.55-22.69-9.41-3.61-8.83.6-18.98 9.42-22.61 8.9-3.72 19.02.46 22.62 9.38 3.67 8.84-.46 18.94-9.35 22.64m30.38 80.25c-8.98 3.25-18.95-1.37-22.23-10.36-3.23-9.01 1.42-18.95 10.36-22.21 9.08-3.3 18.99 1.3 22.21 10.37 3.31 8.99-1.27 18.93-10.34 22.2m-64.24-159.11c-8.69 4.03-19.05.3-23.07-8.4-4-8.67-.24-18.98 8.4-22.99 8.75-4.11 19.03-.37 23.02 8.36 4.05 8.68.38 18.97-8.35 23.03m-1305-37.25c37.79-20.07 71.75-40.97 101.7-61.44 3.14 4.6 6.27 9.16 9.4 13.78a1083 1083 0 0 1-94.42 57.65c-4.97-3.5-10.6-6.85-16.68-9.99m1267.71-40.05c-8.5 4.43-19.01 1.12-23.38-7.39-4.41-8.5-1.06-18.95 7.36-23.36 8.56-4.47 19-1.19 23.38 7.37 4.43 8.5 1.19 18.95-7.36 23.38m-40.6-75.61c-8.31 4.79-18.95 1.96-23.71-6.34-4.76-8.33-1.87-18.9 6.36-23.681 8.35-4.809 18.91-2.008 23.68 6.339 4.77 8.312 2.01 18.882-6.33 23.682m248.83 814.31c-9.52.81-17.97-6.25-18.76-15.79-.84-9.52 6.26-17.92 15.75-18.76 9.6-.82 17.99 6.18 18.76 15.76a17.29 17.29 0 0 1-15.75 18.79m4.86 85.68c-9.54.4-17.66-7.03-18.07-16.6-.41-9.53 7.03-17.62 16.56-18.04 9.63-.41 17.67 6.94 18.06 16.55a17.29 17.29 0 0 1-16.55 18.09m-41.75-340.35c-9.34 2.08-18.62-3.82-20.66-13.15-2.06-9.35 3.84-18.59 13.17-20.67 9.4-2.09 18.62 3.77 20.67 13.18 2.06 9.34-3.77 18.57-13.18 20.64m-19.66-83.53c-9.24 2.47-18.79-3.01-21.22-12.25-2.46-9.26 3.04-18.73 12.24-21.22 9.33-2.49 18.8 2.95 21.23 12.25 2.49 9.26-2.93 18.76-12.25 21.22m47.96 252.82c-9.46 1.23-18.22-5.46-19.44-14.96-1.23-9.49 5.49-18.18 14.9-19.43 9.57-1.27 18.27 5.38 19.47 14.92 1.26 9.52-5.36 18.2-14.93 19.47m-12.3-84.96c-9.41 1.66-18.43-4.63-20.08-14.07-1.65-9.42 4.69-18.39 14.03-20.05 9.55-1.68 18.49 4.56 20.1 14.05a17.24 17.24 0 0 1-14.05 20.07m-502.65-992.659c-6.44-7.051-5.93-18.032 1.08-24.461 7.12-6.52 18.05-6.078 24.49 1.058 6.46 7.051 6.08 17.992-1.03 24.5-7.08 6.453-18.09 6-24.54-1.097m209.18 473.909c-3.3-4.74-5.59-5.29-10.19-3.05l-79.57 38.91c-18.32 8.93-25.03 25.21-15.4 44.85 9.59 19.63 26.56 24.33 44.82 15.4l79.63-38.92c4.55-2.24 5.54-4.38 3.83-9.86l3.8-1.84 19.95 40.88-3.76 1.83c-3.83-5.77-6.09-6.33-10.68-4.1l-79.09 38.65c-32.24 15.76-60.99 10.14-80.57-29.93-19.59-40.09-6.36-66.2 25.92-81.96l79.09-38.64c4.57-2.26 5.5-4.39 3.56-10.41l3.77-1.83 18.65 38.18zm-268-535.351c-6.74-6.777-6.72-17.738.02-24.48 6.81-6.84 17.74-6.867 24.5-.02 6.75 6.781 6.85 17.723.01 24.5-6.77 6.781-17.76 6.813-24.53 0m-125.38-114.898c-7.34-6.18-8.26-17.102-2.11-24.41 6.17-7.391 17.07-8.371 24.39-2.161 7.33 6.18 8.36 17.059 2.16 24.442-6.18 7.328-17.14 8.308-24.44 2.129m-30.27 110.937-86.49 101.731c-3.32 3.883-3.33 6.222 1.33 11.363l-2.72 3.199-79.35-67.511c-5.28-4.461-7.66-5.348-11.24-2.489l-3.23-2.711 24.47-28.73 3.19 2.719c-3.41 5.339-2.16 7.582 3.1 12.07l50.15 42.652 77.99-91.679c3.3-3.872 3.3-6.192-2.73-12.52l2.73-3.203 37.4 31.832-2.71 3.211c-6.28-4.203-8.58-3.793-11.89.066M3102.53 387.25c-7.82-5.512-9.71-16.309-4.21-24.141 5.49-7.879 16.25-9.82 24.09-4.269 7.84 5.531 9.81 16.269 4.3 24.148-5.51 7.852-16.33 9.801-24.18 4.262m68.6 50.301c-7.6-5.84-8.99-16.719-3.17-24.281 5.85-7.641 16.68-9.122 24.28-3.239 7.59 5.867 9.09 16.68 3.23 24.321-5.84 7.589-16.76 9.07-24.34 3.199m130.3 109.359c-7.06-6.5-7.51-17.469-1.06-24.5 6.48-7.109 17.41-7.629 24.46-1.09 7.08 6.489 7.6 17.399 1.1 24.5-6.49 7.051-17.46 7.571-24.5 1.09m304.03 323.399c-7.85 5.472-18.7 3.613-24.18-4.27-5.43-7.848-3.52-18.668 4.3-24.117 7.88-5.551 18.62-3.672 24.12 4.226 5.48 7.864 3.63 18.633-4.24 24.161m-267.13-118.43c-12.6-14.047-22.84-16.969-32.42-8.34-9.57 8.621-7.82 19.09 4.81 33.121l21 23.391 27.62-24.821zm-85.22 31.859c-12.03 10.801-7.9 24.801 6.29 40.633l20.2 22.5 33.39-30.019-20.19-22.5c-14.21-15.813-27.66-21.411-39.69-10.614m136.02 4.953-99.31 89.258c-3.79 3.379-4.12 5.672-.18 11.422l-3.13 2.809-53.4-59.469c-22.01-24.5-21.62-51.832-4.23-67.43 16.46-14.793 32.57-14.793 49.93-2.621l.47-.41c-7.51-14.578-3.39-31.969 7.98-42.16 15.36-13.84 43.55-14.238 66.78 11.609l49.62 55.223-3.14 2.808c-5.24-4.519-7.58-4.429-11.39-1.039m166.21 11.969c-7.63 5.801-18.54 4.41-24.35-3.211-5.81-7.609-4.33-18.5 3.24-24.289 7.63-5.898 18.46-4.48 24.27 3.18 5.84 7.601 4.47 18.469-3.16 24.32M3031.84 340c-8.09-5.16-10.44-15.879-5.31-23.941 5.16-8.098 15.81-10.508 23.89-5.309 8.08 5.148 10.53 15.832 5.35 23.949-5.15 8.071-15.89 10.5-23.93 5.301m431.08 572.879-2.37-3.469 29.3-19.762 2.35 3.493c-3.22 3.25-2.62 5.738 1.25 11.48l58.57 86.891-3.48 2.347c-5.59-6.711-7.93-6.949-12.15-4.089l-110.71 74.68c-4.21 2.81-4.87 5.06-1.1 12.25l-3.47 2.35-60.62-89.851c-3.86-5.719-5.91-7.219-10.15-5.437l-2.35-3.461 29.81-20.09 2.35 3.48c-3.26 3.25-2.63 5.739 1.2 11.438l38.52 57.111 35.72-24.12-21.41-31.768c-3.86-5.723-5.93-7.192-9.68-5.77l-2.33-3.453 29.3-19.77 2.34 3.473c-3.21 3.258-2.62 5.75 1.23 11.457l21.44 31.762 32.27-21.75-36.19-53.621c-3.84-5.719-5.92-7.188-9.64-5.801m14.82-181.777c-6.13-7.34-5.14-18.262 2.17-24.391 7.38-6.223 18.28-5.281 24.41 2.117 6.15 7.332 5.26 18.223-2.11 24.434-7.36 6.129-18.32 5.199-24.47-2.16M1585.08 954.121a986 986 0 0 1-72.59-37.492c3.64-4.34 7.3-8.617 10.97-12.879A965 965 0 0 0 1589.9 938a250 250 0 0 0-4.82 16.121M1251 1443.76l-1.26 2.13c-16.65-11.95-31.6-23.32-44.65-33.74 2.33-5.19 4.71-10.4 7.1-15.64 13.38 10.8 28.91 22.72 46.41 35.3-2.57 3.9-5.12 7.78-7.6 11.95m41.5-69.4c-19.23-13.23-36.47-26-51.71-37.87 2.5-5.1 5.07-10.09 7.64-15.15 15.62 12.25 33.53 25.54 53.58 39.38zm-86.34 193.53c-19.54-14.18-36.29-27.31-50.09-38.65 2.09-5.39 4.23-10.86 6.39-16.3 13.7 11.44 30.74 24.91 50.85 39.65zm22.45-86.12c-15.1-11.08-28.66-21.55-40.47-31.06 2.26-5.28 4.55-10.56 6.88-15.87 12.1 9.88 26.21 20.86 42.09 32.52zm-3.26 48.78c-20.76-14.85-38.71-28.7-53.56-40.85 2.17-5.32 4.41-10.68 6.66-16.04 15.24 12.58 34.11 27.32 56.26 43.19-3.37 4.46-6.43 9.08-9.36 13.7m1187.42-419c50.71-23.78 95.59-49.86 134.34-75.59 3.21 4.51 6.47 8.99 9.65 13.53-34.93 23.24-74.8 46.76-119.34 68.66-8.75-2.9-17.2-5.17-24.65-6.6m-967.13 60.43a1097 1097 0 0 1-82.53-52.11c2.98-4.67 5.99-9.33 9-13.97 25.76 17.95 54.86 36.51 87.12 54.67zm-129.24 168.09c-21.07-14.14-40.05-27.89-56.8-40.74 2.59-5 5.21-9.95 7.84-14.93 17.09 13.19 36.64 27.4 58.43 42.04zm106.83-131.88c-30.48-17.85-57.9-35.87-82.18-53.17 2.89-4.71 5.74-9.46 8.69-14.15 26.14 18.69 56.11 38.26 89.63 57.55-5.85 2.9-11.26 6.16-16.14 9.77m-35.03 28.25c-25.2-15.61-48.06-31.12-68.48-45.99 2.84-4.79 5.63-9.6 8.49-14.37 21.7 15.87 46.32 32.52 73.63 49.26zm-46.48 70.19c-23.26-15.15-44.23-29.99-62.72-43.97 2.66-4.92 5.33-9.8 8.01-14.68 19.45 14.75 41.7 30.57 66.67 46.76-4.17 3.72-8.12 7.74-11.96 11.89m33.83-28.38c-28.61-17.75-54.19-35.34-76.52-51.9 2.78-4.89 5.51-9.74 8.29-14.58 24.35 18.16 52.72 37.63 84.86 57.21-5.74 2.8-11.31 5.88-16.63 9.27m-203.11 521.52c-37.95-25.94-66.74-48.8-85.77-64.94 1.66-5.74 3.36-11.59 5.14-17.52 17.66 15.28 46.59 38.77 85.97 65.92-1.93 5.37-3.7 10.9-5.34 16.54m1636.46 70.85c41.85-28.24 72.09-52.41 89.97-67.65 1.59 6.27 3.09 12.32 4.51 18.11-19.82 16.62-50.69 40.82-91.82 68.35zm-6.88-45.74c38.99-26.84 67.73-49.99 85.4-65.18 1.68 6.09 3.28 11.99 4.81 17.76-19.36 16.3-48.69 39.4-87.28 65.6 0 0-1.43-9.79-2.93-18.18M1188.3 1606.15c-18.59-13.67-34.42-26.16-47.36-36.9 1.99-5.42 4.04-10.92 6.1-16.39 12.85 10.86 29.01 23.87 48.29 38.24zm1722.63 240.79c1.5 6.61 2.87 12.72 4.1 18.32-86.6 72.27-412.52 310.89-930.78 310.89-518.24 0-844.15-238.62-930.75-310.89 1.23-5.6 2.6-11.71 4.1-18.32 72.98 62.61 398.32 312.53 926.65 312.53 528.36 0 853.7-249.92 926.68-312.53m-109.67-155.47c-1.26-5.8-2.79-11.49-4.54-17.15 21.35-15.77 38.82-29.83 51.98-40.97 1.94 5.73 3.82 11.39 5.66 16.99-13.84 11.55-31.65 25.64-53.05 41.24zm-28.88 51.32c25.38-17.83 67.98-48.92 89.88-67.94 1.86 5.87 3.68 11.68 5.44 17.41-19.85 18.02-61.91 47.66-87.49 65.84zm17.72 38.8c17.58-11.26 71.45-53.02 85.09-64.64 1.75 5.99 3.48 11.84 5.13 17.58-11.25 9.49-65.71 51.93-84.67 63.96-1.7-5.77-3.53-11.4-5.55-16.9m-1622.93-90.15-.47 2.11c-22.16-16.25-40.28-30.8-54.19-42.53 1.84-5.6 3.73-11.31 5.66-17.03 13.12 11.25 30.84 25.73 53.04 42.19-1.53 5.03-2.91 10.12-4.04 15.26m-10.38 198.68c-42.4-28.25-73.65-52.78-93.06-69.1 1.39-5.73 2.89-11.73 4.47-17.96 17.28 14.95 47.94 39.9 91.12 69.22zm23.37-238.08c-21.72-15.85-39.65-30.2-53.79-42.06 1.94-5.55 3.92-11.17 5.93-16.81 13.95 11.89 32.43 26.85 55.21 43.6-2.65 4.98-5.09 10.1-7.35 15.27m-16.83 192.3c-39.72-26.93-69.48-50.54-88.53-66.69 1.56-5.79 3.14-11.7 4.83-17.8 17.13 14.86 46.25 38.58 86.61 66.31-1.53 7.59-2.91 18.18-2.91 18.18m317.58-701.58c-35.14-18.92-66.87-38.5-95.02-57.64 3.07-4.59 6.19-9.13 9.34-13.73 29.83 20.26 63.79 41.05 101.62 60.98-5.82 3.25-11.13 6.74-15.94 10.39m-293.26 616.6c-22.94-14.14-75.47-55.43-88.39-66.72 1.76-5.66 3.54-11.44 5.4-17.28 25.02 22.46 71.26 55.92 90.55 69zm85.5-347.77c-18.89-13.22-35.76-25.85-50.52-37.5 2.42-5.11 4.83-10.2 7.29-15.36 15.55 12.38 33.61 25.99 54.06 40.27-3.69 3.96-7.3 8.17-10.83 12.59m949.18-649.07a823 823 0 0 0 62.14-22.2c4.58 4.11 9.07 8.309 13.61 12.489a838 838 0 0 1-68.36 24.91c-2.11-5.34-4.61-10.387-7.39-15.199m15.11 44.242c-.12-.813-.37-1.614-.5-2.43 28.92-9.371 56.46-19.961 82.5-31.543 4.34 4.141 8.71 8.242 13.02 12.422a864 864 0 0 1-69.58 27.961c-8.01-2.66-16.46-4.883-25.44-6.41m-49.37-80.5a803 803 0 0 0 58.96-18.59c4.86 4.137 9.76 8.277 14.61 12.488a803 803 0 0 1-57.42 18.949c-4.96-4.82-10.32-9.16-16.15-12.847m-401.14-72.602c5.64-4.301 11.33-8.5 17.02-12.738 55.29 13.699 115.31 21.957 180.06 21.957 64.23 0 123.84-8.34 178.85-22.18 5.63 4.231 11.35 8.41 16.98 12.692-59.77 16.23-125.07 26.168-195.83 26.168-71.32 0-137.02-9.86-197.08-25.899m510.63 175.59c19.03-7.602 37.39-15.648 55-24.102 4.14 4.133 8.24 8.321 12.34 12.524-16.4 8.008-33.49 15.68-51.13 22.969-5.1-4.051-10.5-7.852-16.21-11.391m-258.87-123.09c60.41-4.371 116.53-15.719 168.14-31.66 5.22 4.16 10.36 8.391 15.5 12.629-49.98 16.242-104.31 28.191-162.64 33.941-6.61-5.691-13.59-10.718-21-14.91m349.58 273.172c29.3-13.953 56.72-28.711 82.02-43.82 3.55 4.328 7.06 8.707 10.61 13.109-27.7 16.641-57.92 32.871-90.35 48.109zm-2.82 97.528c-.28-.08-.53-.11-.8-.19 51.76-23.02 97.78-48.73 137.78-74.47 3.32 4.44 6.63 8.9 9.93 13.36a1044 1044 0 0 1-121.11 67.24zm8.74-52.36a1009 1009 0 0 0 102.65-55.82c3.43 4.39 6.83 8.82 10.22 13.242-33.14 20.678-70.13 41.018-110.63 59.858zm-33.31-127.859c18.41-8.559 36.15-17.469 53.08-26.661 3.8 4.239 7.6 8.45 11.4 12.739a990 990 0 0 1-56.79 28.703c-2.34-4.902-4.9-9.832-7.69-14.781m-25.81-35.903c16.9-7.468 33.28-15.207 48.92-23.238 3.95 4.18 7.87 8.422 11.81 12.66-15.91 8.27-32.51 16.262-49.68 23.93-3.42-4.551-7.1-9.02-11.05-13.352m43.51 75.364c22.53-10.743 43.94-21.961 64.06-33.473 3.68 4.281 7.38 8.531 11.01 12.851-22.03 12.692-45.43 25.071-70.23 36.801-1.29-5.109-2.9-10.519-4.84-16.179M1834.19 618.91c6.3-4.469 12.63-8.898 19-13.289 41.24 7.551 84.8 11.918 130.84 11.918 45.61 0 88.82-4.43 129.71-12 6.34 4.359 12.7 8.781 18.99 13.262-46.51 9.711-96.05 15.39-148.7 15.39-53.11 0-103.03-5.64-149.84-15.281m117.44-76.211c9.19-5.429 18.43-10.738 27.73-15.98 1.58 0 3.11.113 4.7.113 1.26 0 2.46-.102 3.72-.102 9.27 5.25 18.51 10.559 27.67 15.969-10.33.473-20.78.801-31.39.801-10.96 0-21.74-.328-32.43-.801M1599.7 913.172c-20.55-9.422-40.26-19.262-58.92-29.41 3.76-4.25 7.59-8.461 11.39-12.692 17.44 9.41 35.84 18.489 54.98 27.239a251 251 0 0 0-7.45 14.863m21.91-37.75c-17.72-7.762-34.88-15.891-51.23-24.313 3.91-4.211 7.82-8.429 11.77-12.597 16.04 8.129 32.8 15.988 50.16 23.5a198 198 0 0 0-10.7 13.41m1158.43 759.638c22.17-16.22 40.44-30.83 54.49-42.66 1.97 5.65 3.97 11.21 5.91 16.76-14.11 11.69-31.86 25.68-52.97 41.05a224 224 0 0 0-7.43-15.15m-1226.1-552.02c-44.66-20.9-84.76-43.56-120.12-66.21 3.26-4.47 6.57-8.9 9.87-13.32 39.82 25.45 85.75 50.9 137.52 73.74zm17.94-39.63c-41.4-18.94-79.1-39.47-112.76-60.301 3.36-4.398 6.74-8.789 10.14-13.16 31.46 19.403 66.5 38.541 104.84 56.301zm5.85-45.019c-33.29-15.403-64.17-31.832-92.42-48.653 3.5-4.367 7-8.758 10.53-13.066 25.84 15.308 54 30.269 84.13 44.41zm-49.94 120.069c-44.26-21.64-83.8-44.8-118.41-67.64 3.17-4.56 6.41-8.99 9.62-13.47 38.26 25.21 82.61 50.85 132.84 74.29-7.4 1.48-15.62 3.83-24.05 6.82m364.4-398.94c-52.83-6.188-102.24-17.348-147.96-32.008 5.17-4.231 10.33-8.473 15.57-12.633 47.32 14.383 98.51 24.941 153.39 29.98-8.1 4.352-15.07 9.332-21 14.661m-4.28-137.18c7.28-4.77 14.61-9.461 21.97-14.102 23.98 2.524 48.67 3.942 74.15 3.942 25.13 0 49.51-1.41 73.2-3.91 7.33 4.609 14.66 9.269 21.9 14.031-30.51 4.14-62.15 6.558-95.1 6.558-33.32 0-65.31-2.41-96.12-6.519m-234.52 259.23c-17.96-7.332-35.34-15.011-52-23.05 4.07-4.188 8.17-8.379 12.27-12.52a885 885 0 0 0 55.7 24.09 167 167 0 0 0-15.97 11.48m68.61-33.09c-6.37 1.43-12.36 3.2-18.2 5.2a883 883 0 0 1-69.93-27.739c4.28-4.14 8.63-8.25 12.95-12.351a852 852 0 0 0 78.96 30 83 83 0 0 0-3.78 4.89m42.96-68.378a810 810 0 0 1-60.08-19.442c4.81-4.191 9.71-8.34 14.58-12.469a810 810 0 0 0 60.51 18.731 84.5 84.5 0 0 0-15.01 13.18m-19.79 40.48a846 846 0 0 1-76.82-27.172c4.51-4.148 9-8.34 13.54-12.43a821 821 0 0 0 67.83 23.668c-1.98 4.981-3.5 10.282-4.55 15.934m238.95-420.371c9.59 0 17.33 7.777 17.33 17.391 0 9.539-7.74 17.339-17.36 17.339-9.6.039-17.38-7.8-17.38-17.382 0-9.579 7.81-17.317 17.41-17.348m254.59 3556.899c9.46-1.24 18.16 5.51 19.39 14.91 1.24 9.59-5.32 18.29-14.89 19.48-9.5 1.27-18.2-5.36-19.45-14.92-1.25-9.48 5.46-18.2 14.95-19.47m-17.91-221.52 16.63 105.89 17.14-2.68c39.35-6.18 51.3-20.77 44.93-61.31-6.35-40.51-22.21-50.76-61.53-44.59zm108.28 37.27c6.84 43.48-10.26 81.31-59.39 89.02l-65.06 10.19-.64-4.12c5.46-1.77 6.68-3.77 5.9-8.82l-20.72-131.9c-.77-5.04-2.52-6.6-8.29-6.6l-.66-4.15 59.18-9.27c50.28-7.88 81.47 13.3 89.68 65.65m-110.7-159.18c-1.43-9.46 4.97-18.35 14.45-19.86 9.49-1.58 18.36 4.95 19.88 14.41 1.48 9.48-4.97 18.38-14.46 19.91-9.46 1.47-18.3-4.98-19.87-14.46m104.37 330.5c9.4-1.66 18.42 4.7 20.06 14.04 1.65 9.53-4.54 18.51-14.05 20.11-9.44 1.69-18.39-4.57-20.07-14.05-1.67-9.43 4.66-18.44 14.06-20.1m-21.5-344.93c-1.94-9.39 3.99-18.6 13.42-20.61 9.37-2.06 18.57 4 20.54 13.38 2.01 9.37-3.97 18.59-13.36 20.63-9.38 1.96-18.55-4.02-20.6-13.4m94.31-40.04c9.25-2.54 18.75 3.02 21.24 12.27 2.49 9.28-3.01 18.79-12.28 21.31-9.26 2.45-18.75-3.04-21.27-12.29-2.4-9.27 3.01-18.79 12.31-21.29m-241.42 407.17c9.51-.84 17.94 6.27 18.76 15.72.79 9.65-6.13 18.06-15.75 18.82-9.55.85-17.94-6.15-18.79-15.74-.82-9.54 6.25-17.96 15.78-18.8m-143.02-116.19h.59l18.75-63.19-39.81.64zm-31.56-119.26c-5.1.38-6.52 3.11-6.5 5.8.01 1.18.34 3.28 1.28 5.36l8.79 24.71 53.9-.88 9.12-27.69c.86-2.11 1.16-3.6 1.13-5.11-.06-2.09-1.56-2.66-5.47-3.2l-.05-4.18 40.68-.67.1 4.19c-3.27.66-4.5 1.87-6.17 7.29l-40.81 125.21c-2.55 8.13-3.42 10.55-3.39 12.33.04 3 1.86 4.76 6.39 4.99l.05 4.19-50.01.82-.06-4.19c5.4-.69 6.54-1.9 6.53-3.7-.02-2.4-1-4.77-2.86-10.13l-45.77-127.43c-.93-2.37-2.52-6.83-6.39-7.07l-.07-4.21 39.51-.63zm-12.69-100.16c0-9.58 7.76-17.36 17.35-17.36s17.34 7.78 17.34 17.36c0 9.59-7.75 17.35-17.34 17.35s-17.35-7.76-17.35-17.35m102.31 15.15c-9.57.46-17.68-6.87-18.24-16.46-.42-9.58 6.84-17.74 16.48-18.24 9.58-.58 17.7 6.83 18.24 16.41.49 9.57-6.85 17.75-16.48 18.29m-169.99 326.01c9.58.42 17 8.52 16.57 18.1-.41 9.57-8.51 16.99-18.08 16.58-9.58-.42-17.01-8.52-16.57-18.1.41-9.57 8.51-16.99 18.08-16.58m251.15-367.25c9.57-1.08 18.07 5.9 19.08 15.44 1.02 9.53-5.9 18.09-15.45 19.13-9.57.96-18.04-5.94-19.11-15.49-.93-9.52 5.92-18.06 15.48-19.08m-81.05 367.25c9.52-.41 17.62 7.07 18.02 16.53.38 9.68-6.92 17.78-16.54 18.11-9.57.45-17.67-6.91-18.08-16.54-.42-9.57 7.02-17.65 16.6-18.1m336.89-44.34c9.32-2.08 18.61 3.88 20.64 13.14 2.07 9.45-3.72 18.7-13.16 20.72-9.35 2.09-18.57-3.77-20.66-13.16-2.06-9.34 3.84-18.62 13.18-20.7m-421.96 46.2c9.59 0 17.34 7.76 17.34 17.35 0 9.58-7.75 17.36-17.34 17.36s-17.35-7.78-17.35-17.36c0-9.59 7.76-17.35 17.35-17.35m900.2-220.26c8.49-4.4 18.98-1.07 23.35 7.36 4.46 8.59 1.23 19.01-7.34 23.42-8.48 4.43-18.92 1.17-23.38-7.37-4.4-8.51-1.09-18.99 7.37-23.41m-126.97-148.88c-17.08-31.62-12.61-60.54 26.61-81.75 39.25-21.19 65.89-9.02 82.94 22.58l41.85 77.43c2.38 4.47 4.57 5.36 10.53 3.16l1.97 3.67-37.38 20.21-2-3.68c4.6-3.52 5.06-5.8 2.63-10.27l-42.1-77.96c-9.69-17.92-26.21-23.95-45.43-13.57-19.22 10.39-23.24 27.51-13.58 45.43l42.1 77.95c2.45 4.49 4.59 5.34 10.04 3.44l1.99 3.69-40.03 21.62-2.01-3.7c5.65-4.05 6.11-6.35 3.68-10.81zm87.2-223.66a17.367 17.367 0 0 1 5.14-24.03c8.01-5.29 18.76-2.94 24.01 5.1 5.22 8.05 2.95 18.82-5.13 24.06-8.05 5.2-18.74 2.9-24.02-5.13m-72.19 43.18c-4.76-8.32-1.97-18.92 6.39-23.73 8.27-4.86 18.91-1.96 23.7 6.36 4.78 8.29 1.96 18.92-6.37 23.74-8.31 4.77-18.88 1.93-23.72-6.37m142.03-90.08c-5.58-7.77-3.94-18.59 3.88-24.25 7.71-5.7 18.58-3.92 24.22 3.83s3.93 18.62-3.85 24.29c-7.77 5.61-18.57 3.88-24.25-3.87m-184.19 491.32c8.82-3.65 18.97.59 22.61 9.36 3.67 8.95-.45 19.05-9.35 22.68a17.306 17.306 0 0 1-22.67-9.37c-3.63-8.86.56-19 9.41-22.67m77.85-34.26c8.66-4.03 19-.23 23 8.37 4.07 8.77.4 19.05-8.38 23.07-8.66 4.05-18.93.34-23.02-8.37-4.02-8.69-.26-19.02 8.4-23.07m-908.94-145.25c-9.55-.52-16.9-8.67-16.39-18.24.49-9.57 8.65-16.93 18.24-16.42 9.57.5 16.91 8.67 16.4 18.25-.49 9.56-8.65 16.9-18.25 16.41m644.55-115.65c-3.39-8.96 1-18.98 10.01-22.44 8.95-3.51 18.97 1.02 22.39 9.99 3.45 8.95-1.01 18.99-9.98 22.46-8.94 3.41-18.95-1.06-22.42-10.01m-68.41 5.33c9.1-3.03 18.88 2.02 21.86 11.15 2.96 9.12-2.04 18.92-11.19 21.92-9.09 2.92-18.86-2.06-21.86-11.17-2.91-9.14 2.01-18.9 11.19-21.9m134.85 203.52.55-.2-3.28-65.83-37.32 13.84zm-106.39-88.32-1.48-3.91 37.08-13.73 1.45 3.94c-4.68 2.04-5.14 5.09-4.21 7.62.41 1.1 1.45 3 3.01 4.63l16.49 20.39 50.53-18.68-.56-29.15c.09-2.28-.15-3.8-.65-5.21-.73-1.95-2.32-2-6.2-1.21l-1.45-3.9 38.17-14.16 1.48 3.92c-2.87 1.72-3.59 3.26-3.42 8.94l3.03 131.64c.3 8.54.3 11.09.93 12.77 1.01 2.83 3.32 3.88 7.62 2.6l1.46 3.93-46.87 17.34-1.46-3.92c4.85-2.44 5.54-3.97 4.92-5.66-.82-2.24-2.5-4.2-6.05-8.62l-85.44-105.01c-1.68-1.93-4.63-5.62-8.38-4.56m-15.01 256.59c9.23-2.47 18.76 3.08 21.22 12.24 2.46 9.35-2.92 18.83-12.25 21.27a17.27 17.27 0 0 1-21.22-12.25c-2.49-9.26 3.01-18.77 12.25-21.26m81.67-23.8c9.11-2.87 18.84 2.26 21.7 11.31 2.91 9.22-2.08 18.94-11.31 21.77-9.1 2.89-18.81-2.12-21.71-11.3-2.88-9.15 2.2-18.89 11.32-21.78m80.53-27.34c8.97-3.26 18.95 1.43 22.19 10.35 3.3 9.09-1.24 19.01-10.35 22.24-8.97 3.29-18.89-1.31-22.2-10.34-3.26-9.01 1.39-18.98 10.36-22.25m308.01-143.61c8.29-4.76 18.89-1.89 23.64 6.33 4.83 8.4 2.07 18.94-6.34 23.72-8.26 4.79-18.84 1.98-23.64-6.34-4.8-8.31-1.95-18.92 6.34-23.71m-253.28-272.47c8.52-4.43 18.98-.97 23.34 7.58 4.37 8.54.97 19-7.6 23.39-8.54 4.32-18.95.93-23.36-7.61-4.32-8.57-.98-18.99 7.62-23.36m-60.99 67.58c-8.78 3.87-18.98-.07-22.94-8.83-3.83-8.77.03-19.01 8.83-22.93 8.75-3.98 19.02.03 22.9 8.8 3.9 8.75-.01 19.02-8.79 22.96M1114.12 3597.4c16 8.81 26.56 5.73 32.91-5.8 6.36-11.56 3.31-22.13-12.7-30.94l-30.16-16.57-20.24 36.71zm-62.75-19.47 64.35-117.02c2.42-4.45 2.01-6.75-2.04-9.99l2.04-3.68 38.28 21.08-2.01 3.68c-5.44-1.98-7.59-1.1-10.05 3.34l-25.69 46.71 23.9 13.11 44.84-30.01c5.93-3.91 6.91-5.08 7.63-6.38 1.29-2.37-.63-4.45-3.36-6.3l2-3.66 38.84 21.34-2.01 3.67c-5.69-2.1-9.45 1.65-21.71 10.27l-42.39 28.64c17.46 15.42 19.09 35.45 8.13 55.38-12.96 23.63-38.37 28.79-67.24 12.91l-65.57-36.07 1.99-3.67c5.43 1.96 7.61 1.11 10.07-3.35m120.86-187.34c-8.29-4.81-11.13-15.42-6.35-23.71 4.81-8.31 15.4-11.15 23.71-6.34 8.31 4.78 11.15 15.39 6.34 23.7-4.78 8.3-15.39 11.12-23.7 6.35m-72.49-44.43c-8.04-5.23-10.31-15.96-5.1-24 5.23-8.04 15.95-10.32 24.01-5.1 8.03 5.22 10.32 15.96 5.09 24-5.22 8.04-15.94 10.32-24 5.1m-73.91-72.39c5.64-7.76 16.49-9.48 24.25-3.84 7.77 5.63 9.46 16.49 3.83 24.24-5.63 7.77-16.49 9.47-24.24 3.84-7.75-5.64-9.46-16.49-3.84-24.24m212.32 511.6c8.87 3.67 13.07 13.83 9.41 22.67-3.67 8.87-13.81 13.07-22.67 9.39-8.86-3.66-13.07-13.8-9.38-22.66 3.66-8.85 13.8-13.07 22.64-9.4m1.2-377.56c4.38-8.54 14.82-11.93 23.37-7.59 8.52 4.36 11.92 14.81 7.57 23.35-4.34 8.54-14.79 11.93-23.33 7.58-8.54-4.37-11.93-14.81-7.61-23.34m-155.34 305.68c8.51 4.43 11.82 14.9 7.39 23.4-4.43 8.51-14.9 11.81-23.41 7.38-8.48-4.42-11.8-14.89-7.38-23.39 4.43-8.52 14.91-11.81 23.4-7.39m76.29 37.62c8.7 4.05 12.44 14.37 8.4 23.07-4.05 8.69-14.36 12.45-23.04 8.37-8.71-4.04-12.45-14.36-8.41-23.05 4.05-8.68 14.37-12.44 23.05-8.39m-262.73-560.06c-7.121-6.43-7.695-17.41-1.285-24.52 6.414-7.12 17.379-7.7 24.516-1.28 7.137 6.41 7.683 17.4 1.258 24.52-6.399 7.13-17.364 7.69-24.489 1.28m-61.672-58.53c-6.765-6.78-6.765-17.77 0-24.55 6.782-6.77 17.747-6.77 24.528.01 6.797 6.77 6.781 17.77 0 24.54-6.781 6.78-17.774 6.78-24.528 0m126.329 113.74c-7.465-6.05-8.586-16.96-2.571-24.42 6.043-7.45 16.953-8.59 24.418-2.56 7.449 6.02 8.586 16.96 2.543 24.41-6.031 7.45-16.953 8.6-24.39 2.57m-116.758 189.76 79.98-106.93c3.047-4.06 2.926-6.41-2.996-11.96l2.488-3.38 86.779 64.97c5.52 4.1 7.98 4.82 11.4 1.75l3.36 2.52-21.52 28.76-3.36-2.48c1.97-4.17.6-6.31-4.92-10.41l-55.125-41.28-25.856 34.53 30.696 22.95c5.507 4.13 7.984 4.84 10.992 2.25l3.39 2.52-21.164 28.3-3.379-2.5c1.985-4.15.59-6.31-4.906-10.42l-30.68-22.97-23.324 31.16 51.762 38.75c5.523 4.14 7.984 4.85 11.047 2.28l3.336 2.47-21.137 28.31-3.363-2.51c1.969-4.12.574-6.29-4.91-10.41l-83.93-62.77 2.543-3.36c7.465 4.47 9.734 3.94 12.797-.14m91.273 192.43c8.067 5.16 10.446 15.88 5.305 23.95-5.156 8.1-15.859 10.48-23.953 5.31-8.067-5.13-10.473-15.86-5.321-23.94 5.157-8.09 15.903-10.47 23.969-5.32m-70.711-47.26c7.848 5.51 9.735 16.33 4.239 24.17-5.497 7.86-16.313 9.76-24.161 4.26-7.847-5.49-9.746-16.31-4.25-24.16s16.297-9.77 24.172-4.27m143.429 91.4c8.29 4.78 11.14 15.39 6.35 23.7-4.8 8.3-15.41 11.14-23.712 6.34-8.297-4.78-11.141-15.4-6.34-23.71 4.785-8.29 15.402-11.14 23.702-6.33m804.85 253.78c9.54.84 16.61 9.25 15.78 18.81-.84 9.53-9.24 16.59-18.79 15.76s-16.62-9.25-15.79-18.79c.84-9.55 9.26-16.61 18.8-15.78M797.426 3530.9c7.601 5.83 9.023 16.73 3.199 24.31-5.852 7.63-16.723 9.06-24.336 3.22-7.59-5.83-9.023-16.72-3.199-24.34 5.851-7.59 16.734-9.03 24.336-3.19m764.834 356.67c9.35 2.08 15.28 11.34 13.19 20.7-2.06 9.36-11.33 15.26-20.69 13.19-9.37-2.09-15.25-11.35-13.19-20.7 2.07-9.36 11.33-15.27 20.69-13.19m167.91-299.43c-9.44-1.51-15.92-10.39-14.41-19.85 1.49-9.47 10.38-15.93 19.84-14.43 9.48 1.51 15.93 10.39 14.43 19.85-1.5 9.47-10.37 15.94-19.86 14.43m-84.49 316.03c9.44 1.66 15.75 10.66 14.08 20.1-1.66 9.44-10.66 15.75-20.09 14.07-9.44-1.66-15.75-10.66-14.09-20.1 1.67-9.44 10.67-15.73 20.1-14.07m168.79-304.93c-9.54-1.01-16.43-9.55-15.44-19.08 1.01-9.53 9.54-16.44 19.08-15.44 9.52 1.01 16.43 9.54 15.44 19.07-1 9.54-9.55 16.45-19.08 15.45m-84.72 317.87c9.5 1.25 16.2 9.96 14.94 19.47-1.25 9.51-9.95 16.19-19.47 14.94-9.51-1.27-16.18-9.97-14.94-19.48 1.25-9.49 9.97-16.18 19.47-14.93m16.06-113.81c39.52 4.88 55.02-5.87 60.05-46.58 5.05-40.72-7.38-54.93-46.89-59.82l-17.23-2.14-13.18 106.4zm-48.59 7.26 16.4-132.54c.63-5.05-.65-7.01-6.17-8.61l.49-4.16 59.46 7.37c50.51 6.23 74.69 35.15 68.2 87.76-5.4 43.68-32.25 75.37-81.58 69.27l-65.35-8.08.49-4.16c5.74-.2 7.46-1.8 8.06-6.85m-299.24 32.99c9.14 2.88 14.21 12.62 11.34 21.77-2.9 9.14-12.63 14.21-21.76 11.32-9.14-2.89-14.22-12.63-11.35-21.75 2.9-9.14 12.63-14.22 21.77-11.34m5.82-209.68c4.98-13.17-.41-25.14-26.17-34.88-15.98-6.07-41.56-7.74-45.28 2.06-.33.82-.36 1.77-.52 3.01l-4.55.2-3.67-41.1 3.45-.62c1.11 2.99 1.6 5.09 3.28 5.72 4.2 1.6 9.16.28 19.42.31 9.57.1 21.94 1.25 35.36 6.35 43.7 16.54 54.96 47.69 46.24 70.67-21.82 57.66-102.04 2.33-113.28 32.02-3.6 9.5-.14 19.8 15.83 25.85 23.24 8.79 39.37 3.36 41.81-3.07.65-1.68 1.2-4.03 1.53-4.86l4.55-.21 7.58 42.57-2.67.27c-.93-2.59-2.06-4.62-5.15-5.79-2.81-1.06-8.36.03-17.35.16-9 .11-20.99-1.22-35.85-6.85-36.64-13.89-45.17-40.49-36.78-62.59 19.8-52.38 100.54 1.58 112.22-29.22m-1.56-133.59c-8.94-3.44-13.4-13.48-9.98-22.42 3.46-8.95 13.48-13.41 22.42-9.98 8.93 3.44 13.41 13.48 9.98 22.41-3.42 8.96-13.45 13.44-22.42 9.99m-84.79 315.93c8.99 3.27 13.64 13.24 10.36 22.23-3.28 9.01-13.23 13.66-22.24 10.38s-13.66-13.24-10.35-22.24c3.25-9 13.22-13.65 22.23-10.37m246.46-263.41c-9.26-2.48-14.75-12-12.29-21.25 2.52-9.26 12-14.75 21.27-12.28 9.26 2.5 14.74 12.01 12.25 21.26-2.46 9.26-11.97 14.75-21.23 12.27m-39.31 220.97 32.38-129.54c1.23-4.94.22-7.04-7.99-10.03l1.02-4.06 48.78 12.2-1 4.05c-8.65-1.22-10.53.15-11.77 5.1l-32.38 129.53c-1.23 4.95-.22 7.04 8.01 10.04l-1.03 4.05-48.79-12.19 1.02-4.07c8.64 1.24 10.52-.14 11.75-5.08m-200.9-306.02c-8.74-3.91-12.68-14.17-8.79-22.91 3.91-8.76 14.13-12.69 22.91-8.8 8.72 3.9 12.69 14.17 8.78 22.92-3.89 8.75-14.14 12.7-22.9 8.79m155.95 399.6c9.24 2.48 14.74 12 12.25 21.26-2.46 9.25-11.98 14.75-21.23 12.27-9.28-2.48-14.75-12.01-12.28-21.26 2.49-9.25 11.99-14.75 21.26-12.27m2.74-338.69c-9.12-2.96-14.1-12.75-11.13-21.86 2.95-9.12 12.73-14.11 21.86-11.15 9.12 2.97 14.09 12.76 11.14 21.86-2.95 9.12-12.76 14.12-21.87 11.15m164.19 43.99c-9.37-2-15.36-11.21-13.37-20.58 2-9.39 11.21-15.37 20.59-13.37s15.36 11.2 13.35 20.59c-1.97 9.36-11.19 15.35-20.57 13.36m1789.46-942.14c3.83-8.8 14.14-12.71 22.91-8.8 8.75 3.89 12.69 14.15 8.81 22.94-3.94 8.75-14.14 12.67-22.94 8.8-8.74-3.94-12.72-14.15-8.78-22.94m46.02 197.69c-13 23.27-3.23 46.23 27.86 63.65 31.12 17.4 55.81 13.69 68.85-9.56 12.99-23.26 3.17-46.23-27.89-63.63-31.1-17.37-55.83-13.71-68.82 9.54m118.67 66.37c-22.38 39.98-66.21 45.33-105.41 23.41-39.21-21.93-57.59-62.06-35.22-102.05s66.2-45.34 105.38-23.41c39.21 21.95 57.59 62.07 35.25 102.05m-155.97-1579.79c8.77-3.88 19.03.05 22.94 8.82 3.89 8.79-.05 19.01-8.83 22.91-8.72 3.87-18.97-.01-22.9-8.8-3.92-8.75.04-19.02 8.79-22.93m33.06 77.37c8.93-3.43 18.98 1.05 22.42 9.98 3.43 8.98-1.04 18.99-10.02 22.45-8.93 3.4-18.96-1.03-22.39-10.01-3.49-8.93 1.01-18.99 9.99-22.42m22.48 1173.95c-3.49 8.95-13.48 13.37-22.48 9.98-8.91-3.48-13.4-13.46-9.95-22.45 3.39-8.99 13.48-13.41 22.43-9.99 8.96 3.43 13.42 13.49 10 22.46m51.73-230.98c-9.35-2.02-15.37-11.17-13.34-20.59 1.92-9.42 11.21-15.38 20.59-13.39 9.36 1.99 15.34 11.21 13.38 20.62-2.03 9.38-11.24 15.32-20.63 13.36m-34.51 128.94c9.11 2.95 14.08 12.74 11.16 21.91-3.01 9.11-12.77 14.05-21.9 11.12-9.11-3-14.13-12.72-11.13-21.88 2.9-9.17 12.74-14.13 21.87-11.15m267.9 266.28c3.65-8.82 13.85-13.01 22.63-9.38 8.94 3.72 13.12 13.78 9.39 22.66-3.65 8.86-13.74 13.08-22.62 9.4-8.84-3.7-13.09-13.85-9.4-22.68m-186.19-915.99c.98 9.57-5.94 18.07-15.48 19.1-9.52.97-18.07-5.89-19.06-15.46-1.06-9.55 5.94-18.09 15.45-19.09 9.52-1.01 18.06 5.93 19.09 15.45m105.72 517.27-8.19 38.96 65.56-6.12.12-.57zm79.18 54.22c-2.36-.46-4.9-.08-10.53.57l-134.37 16.44c-2.54.39-7.25.93-8.33 4.69l-4.11-.87 8.15-38.69 4.07.89c-.76 5.03 1.56 7.05 4.21 7.6 1.2.25 3.31.38 5.54-.06l26.04-3.09 11.08-52.75-24.97-15.03c-1.88-1.31-3.29-1.92-4.75-2.22-2.06-.43-2.96.91-4.35 4.57l-4.1-.81 8.36-39.86 4.1.84c-.08 3.35.83 4.75 5.76 7.63l113.07 67.48c7.37 4.31 9.54 5.7 11.3 6.06 2.93.6 5.03-.78 6.27-5.1l4.1.88-10.28 48.9-4.1-.87c.51-5.4-.42-6.79-2.16-7.2m-26.9-419.43c-40.97-.66-53.8 13.2-54.45 52.99l-.26 17.36 107.17 1.77.27-17.38c.63-39.81-11.73-54.06-52.73-54.74m76.97 109.62-4.16-.04c-.83-5.73-2.58-7.24-7.66-7.33l-133.53-2.15c-5.09-.08-6.91 1.38-7.87 7.06l-4.22-.06.97-59.88c.82-50.89 27.02-78.01 79.99-77.15 44 .7 78.36 23.99 77.57 73.7zm-246.07-345.95a17.38 17.38 0 0 1-14.47 19.86c-9.45 1.46-18.35-4.94-19.84-14.44-1.54-9.47 4.97-18.39 14.43-19.89 9.46-1.49 18.36 4.98 19.88 14.47m-35.36-166.28c2.49 9.31-3.04 18.78-12.3 21.27-9.25 2.43-18.76-3.01-21.22-12.3-2.57-9.26 3-18.77 12.27-21.26 9.23-2.48 18.75 3.05 21.25 12.29m-24.12-81.51c2.93 9.13-2.05 18.89-11.21 21.89-9.09 2.92-18.89-2.04-21.85-11.17-3-9.14 2.04-18.93 11.16-21.89 9.1-2.94 18.89 2.05 21.9 11.17m44 164.18c1.95 9.41-4.02 18.6-13.43 20.59-9.35 1.96-18.58-3.98-20.56-13.38-2.05-9.38 3.99-18.6 13.37-20.59 9.38-2 18.6 3.99 20.62 13.38m-41.13 770.23c-9.24-2.52-14.76-11.98-12.25-21.27 2.44-9.29 12.01-14.76 21.25-12.29 9.27 2.48 14.77 12 12.3 21.31-2.54 9.25-12 14.7-21.3 12.25m335.89 72.16c2.46-9.24 12.01-14.7 21.19-12.26 9.33 2.54 14.82 11.97 12.28 21.27-2.46 9.24-11.89 14.73-21.22 12.23-9.24-2.48-14.76-12-12.25-21.24m64.67-230.63c-9.47-1.28-16.19-10-14.9-19.49 1.23-9.47 9.98-16.14 19.41-14.93 9.57 1.3 16.24 9.96 14.93 19.49-1.23 9.49-9.87 16.17-19.44 14.93m-363.82-5.65c-9.45-1.52-15.93-10.37-14.42-19.87 1.45-9.5 10.39-15.92 19.88-14.43 9.46 1.49 15.91 10.39 14.43 19.88-1.53 9.5-10.42 15.9-19.89 14.42m350.01 90.33c-9.4-1.68-15.72-10.68-14.05-20.09 1.67-9.42 10.69-15.7 20.04-14.06 9.54 1.7 15.81 10.63 14.11 20.1a17.313 17.313 0 0 1-20.1 14.05M3932 2069.3c.41-9.54 8.53-16.94 18.02-16.53 9.68.43 17.06 8.46 16.6 18.06-.4 9.57-8.41 16.98-18.06 16.57-9.57-.41-17-8.53-16.56-18.1m-5.55 84.88c.83-9.51 9.27-16.55 18.73-15.75 9.62.86 16.64 9.22 15.78 18.81-.82 9.53-9.16 16.58-18.76 15.75-9.54-.86-16.63-9.28-15.75-18.81m24.73-152.54c-9.56-.01-17.35-7.79-17.32-17.36.01-9.57 7.79-17.3 17.31-17.33 9.66.03 17.39 7.71 17.33 17.34 0 9.57-7.67 17.34-17.32 17.35m-63.53 404.6c2.05-9.33 11.33-15.23 20.61-13.18 9.45 2.1 15.32 11.32 13.21 20.7-2.08 9.35-11.26 15.27-20.67 13.18-9.35-2.1-15.27-11.36-13.15-20.7m-905.9 837.39c-5.97-7.5-4.89-18.38 2.63-24.45 7.39-6.11 18.34-4.89 24.39 2.56 6.03 7.46 4.88 18.39-2.59 24.46-7.46 6.02-18.33 4.85-24.43-2.57m598.39-1074.31c-9.51-1.04-16.46-9.52-15.42-19.09.91-9.56 9.54-16.47 19.04-15.47 9.56 1.01 16.48 9.55 15.49 19.09-1.05 9.57-9.57 16.43-19.11 15.47m9.3-251.97c-9.57.48-17.72-6.82-18.21-16.4-.58-9.6 6.86-17.78 16.4-18.27 9.6-.52 17.75 6.86 18.28 16.43.48 9.63-6.87 17.74-16.47 18.24m1.3 84.14c-9.59-.06-17.35-7.77-17.33-17.39-.08-9.6 7.77-17.35 17.34-17.36 9.6 0 17.36 7.77 17.38 17.36-.02 9.62-7.78 17.35-17.39 17.39m225.51 649.57c3.29-8.98 13.26-13.59 22.21-10.37 9.08 3.34 13.7 13.22 10.37 22.26-3.26 8.99-13.15 13.64-22.21 10.35-9-3.29-13.68-13.24-10.37-22.24m27.36-80.54c2.89-9.12 12.65-14.17 21.71-11.31 9.23 2.92 14.26 12.59 11.33 21.77-2.86 9.13-12.53 14.19-21.73 11.31-9.11-2.89-14.22-12.65-11.31-21.77m-14.94-759.04-4.13.52c-2-8.49-3.94-9.76-9-9.14l-132.5 16.49c-5.04.66-6.62 2.36-6.53 10.49l-4.14.49-13.38-107.51c-.89-6.84-2.07-9.1-6.64-9.45l-.51-4.13 35.65-4.46.52 4.16c-4.32 1.43-4.95 3.94-4.1 10.76l8.5 68.32 42.8-5.31-4.76-38.05c-.85-6.82-2.04-9.07-6-9.5l-.51-4.14 35.06-4.36.49 4.14c-4.32 1.44-4.9 3.92-4.1 10.76l4.78 38.03 38.61-4.81-8.01-64.16c-.85-6.82-2.02-9.09-5.99-9.5l-.53-4.17 35.07-4.36.49 4.15c-4.34 1.45-4.92 3.94-4.08 10.78zm-150.35-392.33 8.79 27.04 39.87-12.98-8.81-27.05c-6.51-19.92-14.6-26.39-29.12-21.68-14.51 4.73-17.23 14.74-10.73 34.67m1.45-63.14c23.33-7.58 48.74.8 60.63 37.23l22.18 68.02-3.98 1.31c-2.8-5.71-4.99-6.57-9.83-5l-126.93 41.4c-4.84 1.55-6.07 3.55-4.98 9.79l-3.96 1.33-14.11-43.28 3.99-1.31c2.76 5.71 4.95 6.59 9.78 5l50.65-16.51-10.47-32.16c-11.87-36.44 3.69-58.19 27.03-65.82m-92.14 729.52c-9.57-.53-16.92-8.65-16.39-18.25.42-9.6 8.65-16.93 18.2-16.44 9.6.5 16.95 8.67 16.47 18.27-.53 9.6-8.68 16.9-18.28 16.42m-416.58 1445.42c7.58-5.81 18.5-4.34 24.26 3.19 5.89 7.7 4.52 18.51-3.18 24.33-7.57 5.83-18.4 4.45-24.29-3.19-5.81-7.61-4.35-18.5 3.21-24.33m18.7-240.71c24.89 25.48 49.65 28.92 68.66 10.31 19.09-18.62 16.16-43.42-8.72-68.88-24.91-25.48-49.61-28.92-68.69-10.33-19.03 18.64-16.14 43.44 8.75 68.9m81.34-79.5c31.4 32.11 37.65 75.8 4.93 107.8-32.74 32-76.28 24.73-107.66-7.37-31.41-32.09-37.65-75.79-4.91-107.8 32.76-32.01 76.26-24.73 107.64 7.37m-9.31 269.09c6.19 7.44 5.3 18.31-2.11 24.46-7.33 6.16-18.22 5.23-24.43-2.12-6.14-7.37-5.15-18.3 2.15-24.46 7.33-6.14 18.3-5.14 24.39 2.12m64.01-57.15c6.53 7.16 6.12 18.06-1.04 24.53a17.304 17.304 0 0 1-24.49-1.06c-6.44-7.08-5.96-18.06 1.07-24.52 7.07-6.44 18.05-5.93 24.46 1.05m61.5-59.88c6.82 6.86 6.86 17.77.01 24.54-6.77 6.78-17.71 6.81-24.51.02-6.77-6.8-6.76-17.78 0-24.54 6.75-6.77 17.77-6.72 24.5-.02m-27.07-30.11-27.98 28.07-58.12-13.22 17.31-17.34zm-113.97-326.56c-6.05 7.43-16.93 8.57-24.44 2.55-7.41-6.07-8.59-16.95-2.52-24.44 5.96-7.5 16.93-8.6 24.4-2.57 7.45 6.04 8.6 16.97 2.56 24.46m47.82-1952.28c-7.74 5.59-18.59 3.93-24.24-3.87-5.67-7.73-3.91-18.62 3.84-24.25 7.74-5.65 18.61-3.9 24.26 3.87 5.66 7.78 3.91 18.59-3.86 24.25m-50.5-67.299c-7.41 6.008-18.34 4.89-24.38-2.571-6.09-7.41-4.91-18.378 2.56-24.421 7.41-6.047 18.37-4.868 24.44 2.601 6.04 7.461 4.84 18.34-2.62 24.391m-221.6 2508.059 28.93-21.31-71.41-96.89c-2.99-4.08-5.29-4.66-9.41-2.69l-2.49-3.39 34.7-25.57 2.48 3.36c-4.04 4.1-4.18 6.43-1.17 10.54l71.39 96.89 28.91-21.32c5.53-4.09 6.97-6.23 4.1-11.58l3.4-2.49 22.19 30.13-3.38 2.49c-3.37-3.08-5.83-2.39-11.38 1.68l-81.95 60.4c-5.55 4.07-6.95 6.21-4.99 10.36l-3.38 2.5-22.2-30.13 3.39-2.48c4.26 4.27 6.72 3.57 12.27-.5m24.34-304.93c-6.37-7.15-5.88-18.09 1.32-24.54 7.09-6.47 18.09-5.84 24.52 1.28 6.4 7.13 5.82 18.11-1.31 24.56-7.14 6.4-18.08 5.81-24.53-1.3m61.63-57.25c-6.75-6.8-6.79-17.75.04-24.55 6.73-6.85 17.75-6.78 24.54-.02 6.77 6.79 6.77 17.78 0 24.6-6.8 6.75-17.74 6.74-24.58-.03m58.57-60.38c-7.08-6.44-7.74-17.37-1.27-24.53 6.36-7.2 17.38-7.71 24.51-1.3 7.11 6.42 7.72 17.39 1.26 24.57-6.42 7.1-17.33 7.66-24.5 1.26m-64.06 509.19c7.84-5.46 18.67-3.52 24.11 4.24 5.53 7.95 3.69 18.69-4.24 24.18-7.82 5.5-18.59 3.63-24.14-4.25-5.48-7.86-3.55-18.68 4.27-24.17m-70.73 47.27c8.08-5.13 18.8-2.72 23.91 5.28 5.18 8.18 2.87 18.84-5.3 23.98-8.05 5.14-18.73 2.8-23.91-5.31-5.13-8.08-2.75-18.82 5.3-23.95m352.42-2432.65c-8.27 4.76-18.89 1.97-23.69-6.37-4.86-8.28-1.96-18.92 6.36-23.73 8.28-4.79 18.89-1.92 23.7 6.39 4.81 8.33 1.94 18.9-6.37 23.71m221.21 1902.37c7.93 5.57 9.84 16.31 4.28 24.17-5.47 7.85-16.24 9.78-24.13 4.26-7.85-5.52-9.74-16.34-4.27-24.17 5.5-7.81 16.33-9.7 24.12-4.26m-103.25 137.04c7.41 6.25 8.4 17.11 2.13 24.46-6.12 7.34-17.03 8.32-24.39 2.15-7.33-6.18-8.28-17.14-2.13-24.46s17.09-8.23 24.39-2.15m53.1-67.39c7.69 5.91 9.15 16.73 3.23 24.34-5.8 7.59-16.65 9.05-24.28 3.2-7.6-5.85-9.02-16.75-3.2-24.33s16.72-8.98 24.25-3.21m97.18-141.43c8.16 5.23 10.59 15.87 5.36 23.96-5.14 8.09-15.82 10.48-23.92 5.32-8.07-5.16-10.45-15.9-5.32-23.96 5.14-8.06 15.9-10.4 23.88-5.32m-354.37-87.78a17.415 17.415 0 0 1-24.27 3.83c-7.71-5.67-9.5-16.48-3.81-24.26 5.57-7.81 16.46-9.48 24.24-3.85 7.76 5.63 9.47 16.5 3.84 24.28m405.97-276.01 3.91 1.44-18.47 49.69-3.92-1.47c1.2-4.04.13-6.33-3.55-7.71l-128.53-47.77c-3.66-1.36-6.04-.02-7.69 3.51l-3.93-1.47 14.2-38.16 3.93 1.47c-1.61 5.13-.54 7.45 3.11 8.8l102.71 38.18.22-.53c-34.21-25.8-64.67-57.27-96.21-84.97l1.58-4.2c43.04-.63 87.06-4.69 130.18-3.03l.2-.55-103.83-38.62c-3.67-1.35-5.97-.3-8.11 4.63l-3.97-1.46 14.65-39.28 3.93 1.44c-1.5 4.9-.57 7.5 3.09 8.83l128.55 47.8c3.65 1.36 6.08 0 7.94-4.08l3.91 1.46-18.28 49.11-3.92-1.45c.31-3.41-.29-5.22-2.83-6.15-3.91-1.47-53.79 2.01-95.71 3.07 13.18 10.95 66.3 62.33 71.07 64.09 1.94.74 3.61-.25 5.77-2.62m-7.71 290.05c8.38 4.85 11.24 15.38 6.37 23.7-4.77 8.3-15.31 11.16-23.68 6.35-8.27-4.81-11.13-15.42-6.34-23.71 4.81-8.27 15.42-11.08 23.65-6.34m40.62-75.6c8.57 4.48 11.88 14.88 7.4 23.41-4.42 8.5-14.85 11.81-23.36 7.37-8.5-4.45-11.81-14.93-7.38-23.41 4.42-8.48 14.92-11.76 23.34-7.37m37.31-77.3c8.74 4.1 12.49 14.34 8.37 23.06-4.02 8.69-14.31 12.45-23.03 8.38-8.65-4.06-12.44-14.39-8.37-23.05 4.05-8.66 14.39-12.4 23.03-8.39m-328.13 500.48c7.14 6.56 7.65 17.45 1.1 24.53a17.32 17.32 0 0 1-24.5 1.07c-7.06-6.49-7.49-17.47-1.04-24.52 6.45-7.04 17.44-7.48 24.44-1.08m-105.1-2176.6c-8.03 5.18-18.76 2.92-23.99-5.16-5.29-7.99-2.96-18.77 5.09-23.99 8.01-5.24 18.78-2.91 24.03 5.13 5.23 8.06 2.9 18.77-5.13 24.02m5.19 1744.91c-5.25 8.03-15.95 10.29-24.05 5.09-7.98-5.25-10.33-15.95-5.06-24.02 5.17-8.1 15.96-10.34 24-5.11 8.06 5.21 10.33 15.97 5.11 24.04m-56.72 208.88-3.31-2.55 24.76-32.34 3.3 2.55c-2.21 4.35-1.66 6.64 2.36 9.73l82.27 62.96.36-.46c-15.8-24.17-44.28-110.09-48.32-113.17-2.39-1.81-4.51-.06-6.79 1.96l-3.32-2.57 26.53-34.69 3.35 2.56c-1.64 3.63-1.86 5.37 2.91 9.01l106 81.17c4.08 3.1 6.4 3.02 10.2-.48l3.31 2.54-24.74 32.33-3.34-2.54c2.41-4.6 1.88-6.88-2.16-9.97l-74.64-57.18-.36.49c8.88 10.56 41.34 100.66 45.37 103.76 1.42 1.09 2.64.49 5.43-2.65l3.32 2.57-30.04 39.19-3.33-2.53c1.83-3.88 1.32-6.16-2.74-9.26l-106.01-81.19c-4.04-3.08-6.38-2.99-10.37.76m141.71-356.09c-4.38 8.54-14.8 11.9-23.37 7.57-8.52-4.39-11.96-14.78-7.56-23.36 4.32-8.59 14.79-11.95 23.35-7.59 8.55 4.36 11.95 14.8 7.58 23.38m-7.66-1451.17c-8.53 4.31-18.95.95-23.33-7.61-4.43-8.53-.97-19.01 7.58-23.35 8.53-4.35 19-.93 23.36 7.61 4.34 8.55.95 18.98-7.61 23.35m-32.9 1525.89c-4.84 8.29-15.39 11.12-23.76 6.34-8.26-4.83-11.15-15.4-6.31-23.72 4.73-8.36 15.39-11.16 23.73-6.37 8.29 4.79 11.13 15.41 6.34 23.75M101.172 1479.61c-2.516 9.25-12.004 14.73-21.274 12.28-9.27-2.52-14.765-12-12.261-21.25 2.488-9.24 11.96-14.75 21.23-12.27 9.242 2.48 14.754 11.97 12.305 21.24m93.133 1320.12c8.668-4.04 18.992-.3 23.05 8.39 4.036 8.69.274 19.01-8.394 23.05-8.695 4.06-19.031.3-23.051-8.39-4.047-8.68-.328-18.99 8.395-23.05m-33.879-78.85c8.847-3.66 19.004.52 22.695 9.38 3.637 8.86-.574 19.01-9.406 22.67-8.887 3.66-19.031-.53-22.684-9.39-3.648-8.85.535-18.99 9.395-22.66m-30.379-80.25c8.984-3.28 18.933 1.35 22.258 10.35 3.226 9.01-1.395 18.96-10.418 22.25-8.996 3.27-18.977-1.36-22.215-10.37-3.27-9 1.351-18.95 10.375-22.23m101.527 236.4c8.492-4.42 18.977-1.14 23.406 7.37 4.403 8.51 1.094 18.97-7.382 23.4-8.532 4.43-18.993 1.13-23.407-7.38-4.402-8.48-1.121-18.96 7.383-23.39m40.606 75.6c8.312-4.78 18.894-1.96 23.707 6.35 4.769 8.3 1.941 18.91-6.344 23.7-8.34 4.8-18.922 1.95-23.707-6.36-4.785-8.29-1.941-18.89 6.344-23.69m5.097-276.63 80.543-35.56c32.84-14.52 61.36-7.82 79.407 33.01 18.019 40.8 3.8 66.42-29.079 80.92l-80.543 35.6c-4.648 2.03-5.714 4.15-3.964 10.26l-3.856 1.7-17.144-38.9 3.8-1.7c3.145 4.85 5.387 5.49 10.036 3.42l81.074-35.8c18.621-8.23 25.961-24.25 17.117-44.24-8.832-20.01-25.578-25.34-44.215-17.13l-81.074 35.82c-4.649 2.06-5.703 4.15-4.211 9.73l-3.855 1.69-18.375-41.65 3.816-1.68c3.609 5.94 5.851 6.59 10.523 4.51m85.821 422.17c7.847-5.49 18.664-3.61 24.172 4.26 5.468 7.85 3.57 18.67-4.266 24.16-7.863 5.5-18.676 3.59-24.156-4.26-5.512-7.85-3.598-18.67 4.25-24.16m50.148 69.65c7.602-5.83 18.457-4.42 24.32 3.21 5.813 7.59 4.391 18.48-3.211 24.31-7.617 5.84-18.5 4.41-24.335-3.2-5.825-7.59-4.403-18.48 3.226-24.32M135.98 2102.63c-.628-6.86-1.722-9.18-6.289-9.65l-.382-4.16 37.281-3.37.371 4.14c-5.852 1.42-6.551 3.91-5.934 10.77l3.227 35.79 119.902-10.84c5.059-.46 6.699-2.11 7.192-6.65l4.168-.39 3.91 42.95-4.196.37c-1.41-5.6-3.308-6.9-8.378-6.48l-119.907 10.86 3.243 35.79c.628 6.86 1.722 9.15 7.781 9.5l.367 4.19-37.27 3.37-.371-4.19c4.407-1.3 5.075-3.75 4.446-10.63zm180.071 923.76c8.082-5.14 18.801-2.78 23.957 5.31 5.152 8.09 2.746 18.8-5.293 23.95-8.121 5.15-18.813 2.78-23.969-5.3-5.152-8.08-2.785-18.8 5.305-23.96m415.039 451.26c7.328 6.17 8.285 17.11 2.133 24.44a17.32 17.32 0 0 1-24.446 2.15c-7.355-6.15-8.285-17.1-2.132-24.44 6.152-7.34 17.089-8.31 24.445-2.15M362.441 2069.22c-.492-9.6 6.852-17.73 16.407-18.27 9.57-.49 17.746 6.87 18.238 16.46.519 9.57-6.836 17.74-16.406 18.24-9.571.5-17.735-6.86-18.239-16.43M60.211 2393c9.351-2.09 18.621 3.8 20.726 13.16 2.051 9.35-3.855 18.62-13.207 20.69-9.363 2.07-18.632-3.82-20.683-13.18-2.067-9.35 3.812-18.6 13.164-20.67m19.687 83.52c9.227-2.48 18.746 2.99 21.247 12.27 2.46 9.25-3.036 18.75-12.29 21.24-9.27 2.47-18.773-3-21.234-12.27-2.488-9.25 3.008-18.75 12.277-21.24m410.922 760.84c6.125 7.35 5.18 18.28-2.16 24.44-7.367 6.16-18.293 5.2-24.445-2.14-6.164-7.33-5.223-18.28 2.148-24.44 7.34-6.15 18.278-5.21 24.457 2.14M231.656 1418.47l128.297 36.99c4.895 1.4 7.027.43 10.145-7.08l4.019 1.18-30.012 104.12c-1.898 6.59-1.707 9.15 2.356 11.27l-1.164 4.02-34.481-9.93 1.149-4.05c4.566.39 6.07-1.65 7.984-8.28l19.059-66.15-41.426-11.95-10.609 36.84c-1.887 6.59-1.68 9.16 1.804 11.1l-1.175 4.02-33.934-9.76 1.148-4.05c4.567.35 6.098-1.67 8.012-8.29l10.582-36.81-37.379-10.79-17.883 62.15c-1.941 6.62-1.722 9.16 1.75 11.1l-1.148 4.02-33.934-9.77 1.149-4.01c4.566.37 6.098-1.69 8-8.33l28.996-100.63 4.047 1.13c-1.559 8.6-.246 10.54 4.648 11.94m313.114-148.14c-8.559-4.36-11.922-14.82-7.586-23.36 4.386-8.56 14.804-11.95 23.336-7.61 8.531 4.38 11.949 14.8 7.585 23.36-4.359 8.55-14.82 11.96-23.335 7.61m-441.602 1288.8c9.148-2.9 18.895 2.15 21.793 11.32 2.844 9.13-2.215 18.87-11.375 21.77-9.133 2.86-18.879-2.2-21.738-11.36-2.871-9.12 2.16-18.85 11.32-21.73m331.34 435.07c3.457 3.82 5.781 4.14 10.074 1.44l79.68-49.92-.328-.52c-13 4.62-108.774 3.5-113.067 6.22-1.531.93-1.394 2.28.547 5.97l-3.527 2.24-26.223-41.87 3.527-2.23c2.981 3.09 5.332 3.4 9.625.69l113.149-70.92c4.32-2.71 5.058-4.9 2.953-9.96l3.555-2.23 21.629 34.48-3.555 2.23c-3.309-3.56-5.621-3.87-9.942-1.16l-87.785 55.01.328.51c28.165-6.37 118.618-2.98 122.938-5.68 2.543-1.6 1.625-4.2.547-7.05l3.527-2.23 23.227 37.06-3.567 2.19c-2.816-2.8-4.347-3.6-9.433-.4l-113.176 70.91c-4.293 2.7-5.031 4.92-3.09 9.72l-3.555 2.23-21.613-34.51zm126.078-265.13c-8.543 4.35-18.988.95-23.336-7.59-4.363-8.55-.957-18.99 7.547-23.36 8.558-4.33 19.004-.94 23.363 7.61 4.363 8.53.945 19-7.574 23.34m-367.731-973.39c13.016 1.86 21.821-4.77 24.418-22.83l4.84-34.08-41.508-5.91-4.839 34.07c-2.582 18.09 4.047 26.89 17.089 28.75m-31.882-103.12 4.117.58c.105 5.76 1.652 7.51 6.683 8.22l132.235 18.84c5.031.71 7.027-.55 8.613-5.44l4.156.6-6.152 43.27-4.156-.6c-.082-5.74-1.641-7.51-6.699-8.22l-52.747-7.49-3.839 26.96 43.898 31.37c5.77 4.12 7.219 4.64 8.695 4.86 2.664.37 3.938-2.18 4.703-5.38l4.157.6-6.235 43.86-4.183-.6c-.028-6.06-4.84-8.26-17.281-16.66l-41.754-29.56c-8.286 21.82-26.414 30.44-48.946 27.23-26.66-3.79-40.468-25.72-35.847-58.32zm217.863 264.93c-9.559-.52-16.887-8.67-16.395-18.27.52-9.57 8.668-16.91 18.239-16.42 9.57.5 16.898 8.66 16.406 18.24-.481 9.59-8.668 16.94-18.25 16.45m99.227 626.27c8.957-3.41 18.992 1.05 22.425 10 3.457 8.95-1.054 18.99-9.968 22.43-8.969 3.43-18.977-1.06-22.422-10-3.446-8.95 1.023-18.97 9.965-22.43m-89.891-744.75c9.543 1.02 16.433 9.54 15.449 19.11-.984 9.52-9.555 16.45-19.086 15.45-9.543-1-16.418-9.57-15.449-19.11 1.039-9.52 9.543-16.42 19.086-15.45m-10.594 167.85c9.57.01 17.32 7.76 17.32 17.36.043 9.59-7.765 17.35-17.335 17.38-9.598 0-17.336-7.79-17.348-17.38.012-9.58 7.75-17.35 17.363-17.36m-8.465 187.12c-.984-9.55 5.918-18.08 15.45-19.09 9.515-.98 18.046 5.92 19.058 15.46 1.039 9.54-5.906 18.07-15.449 19.08s-18.047-5.92-19.059-15.45m70.575 332.07c-2.954-9.11 2.05-18.9 11.156-21.87 9.133-2.95 18.894 2.03 21.875 11.14 2.98 9.13-2.051 18.91-11.141 21.88-9.137 2.97-18.91-2.03-21.89-11.15m-59.485-247.78c-1.465-9.48 4.973-18.35 14.438-19.87 9.461-1.48 18.347 4.96 19.836 14.44 1.531 9.48-4.961 18.37-14.383 19.86-9.516 1.51-18.375-4.95-19.891-14.43m15.516 83.6c-1.996-9.39 3.992-18.59 13.359-20.61 9.375-1.98 18.578 4.01 20.574 13.4 2.024 9.38-3.992 18.59-13.355 20.59-9.406 1.99-18.582-4-20.578-13.38m19.851 82.66c-2.472-9.27 3.008-18.75 12.25-21.27 9.258-2.46 18.758 3.03 21.258 12.29 2.504 9.26-3.019 18.78-12.262 21.26-9.285 2.49-18.757-3.02-21.246-12.28m45.965-933.29c9.117 2.98 14.11 12.76 11.129 21.87-2.937 9.14-12.758 14.14-21.848 11.19-9.144-2.98-14.109-12.77-11.14-21.9 2.976-9.14 12.754-14.11 21.859-11.16m62.016 1182.31c-8.778 3.9-19.031-.06-22.914-8.8-3.91-8.77.027-19.02 8.777-22.92s19.031.03 22.914 8.8c3.91 8.76-.027 19.03-8.777 22.92m-33.086-1261.31c8.957 3.48 13.426 13.49 9.98 22.44-3.418 8.98-13.48 13.44-22.394 10.02-8.969-3.46-13.426-13.49-10.008-22.45 3.473-8.97 13.48-13.42 22.422-10.01m33.031-77.35c8.75 3.91 12.688 14.16 8.805 22.94-3.899 8.75-14.192 12.7-22.93 8.81-8.762-3.91-12.672-14.17-8.789-22.93a17.376 17.376 0 0 1 22.914-8.82m-86.707 236.74c9.242 2.49 14.738 12.01 12.25 21.25-2.461 9.29-11.976 14.79-21.246 12.3-9.27-2.47-14.738-12-12.266-21.27 2.504-9.27 12.004-14.75 21.262-12.28m-20.523 81.58c9.367 2.01 15.371 11.2 13.359 20.58-1.969 9.42-11.211 15.39-20.562 13.39-9.407-1.99-15.368-11.21-13.372-20.6s11.184-15.35 20.575-13.37M287.273 1917.9l4.157.11-1.121 50.28-4.196-.11c-.699-8.68-2.476-10.26-7.562-10.36l-133.465-3.06c-5.113-.11-6.93 1.34-8.039 10.03l-4.184-.12 1.149-50.3 4.156.11c.727 8.68 2.477 10.23 7.574 10.34l133.52 3.07c5.086.13 6.89-1.32 8.011-9.99m-151.058-466.51 57.176-16.86-6.661 23.58-61.277 31.4zm447.875-255.41c-8.313-4.79-11.129-15.42-6.344-23.74 4.813-8.3 15.422-11.16 23.719-6.38 8.285 4.82 11.133 15.43 6.332 23.74-4.774 8.34-15.422 11.16-23.707 6.38m-184.039 519.77c9.465 1.5 15.929 10.39 14.426 19.85-1.489 9.49-10.407 15.94-19.852 14.46-9.488-1.5-15.914-10.39-14.422-19.88 1.516-9.47 10.375-15.91 19.848-14.43m-191.949 658.22 65.664 5.92-8.489-38.89-57.3 32.39zm-27.141 32.88-10.637-48.86 4.086-.88c1.738 5.13 3.16 6.03 4.926 5.68 2.336-.53 4.484-1.91 9.352-4.82l115.949-69.96c2.133-1.39 6.207-3.81 5.687-7.66l4.102-.89 8.394 38.61-4.09.9c-1.378-4.93-4.332-5.81-6.984-5.23-1.148.25-3.144.98-4.988 2.28l-22.52 13.5 11.473 52.65 28.941 3.5c2.243.43 3.789.4 5.25.07 2.063-.43 2.313-2.02 2.078-5.94l4.086-.9 8.657 39.77-4.086.9c-1.301-3.08-2.723-4.03-8.356-4.62l-130.84-15.32c-8.476-.9-11.019-1.3-12.753-.9-2.942.65-4.309 2.77-3.653 7.22zm365.914 894.46c6.453 7.07 6 18.04-1.066 24.5-7.082 6.5-18.047 6.02-24.5-1.06-6.481-7.06-6.016-18.03 1.054-24.52 7.067-6.46 18.032-6 24.512 1.08M183.137 1238.15c-3.68 8.84-13.824 13.06-22.684 9.36-8.859-3.69-13.098-13.8-9.379-22.64 3.664-8.86 13.781-13.07 22.668-9.4 8.832 3.66 13.059 13.8 9.395 22.68m11.195-69.48c-8.695-4.09-12.469-14.37-8.367-23.04 4.019-8.67 14.328-12.45 23.039-8.39 8.652 4.04 12.426 14.35 8.379 23.05-4.047 8.67-14.356 12.41-23.051 8.38m432.934-44.89c-8.039-5.22-10.282-15.98-5.098-24.05 5.234-8.03 15.98-10.29 24.02-5.09 8.011 5.22 10.324 15.96 5.085 24-5.21 8.07-15.996 10.37-24.007 5.14m-502.278 274.18c-2.925 9.13-12.66 14.22-21.793 11.32-9.16-2.91-14.246-12.62-11.32-21.77 2.871-9.1 12.605-14.19 21.738-11.32s14.219 12.61 11.375 21.77m341.414-664.8c-7.355-6.16-8.339-17.058-2.132-24.39 6.179-7.321 17.089-8.321 24.445-2.168 7.301 6.168 8.312 17.097 2.121 24.457-6.152 7.312-17.078 8.261-24.434 2.101m-314.097 584.27c-3.309 8.98-13.235 13.62-22.242 10.35-9.012-3.32-13.688-13.22-10.352-22.23 3.254-9.01 13.195-13.64 22.23-10.38 8.969 3.27 13.645 13.21 10.364 22.26M646.242 2873.8c-8.039 5.21-18.785 2.93-24.008-5.11-5.222-8.05-2.925-18.79 5.086-24.02 8.067-5.21 18.785-2.93 24.008 5.12 5.223 8.03 2.926 18.79-5.086 24.01M411.797 999.891l57.312-87.77 3.489 2.309c-3.996 7.75-3.313 10 .968 12.781l111.782 73.029c4.265 2.77 6.574 2.49 11.757-3.76l3.5 2.258-59.253 90.732c-3.774 5.79-4.305 8.27-1.067 11.48l-2.285 3.51-30.074-19.63 2.308-3.54c4.239 1.75 6.301.22 10.063-5.55l37.652-57.64-36.094-23.569-20.957 32.069c-3.761 5.77-4.308 8.26-1.562 11.15l-2.281 3.48-29.586-19.3 2.308-3.53c4.254 1.72 6.305.22 10.078-5.55l20.946-32.088-32.594-21.282-35.371 54.16c-3.758 5.75-4.305 8.23-1.543 11.15l-2.297 3.5-29.57-19.35 2.297-3.49c4.238 1.71 6.3.18 10.074-5.559m-180.195 91.489c-8.504-4.48-11.84-14.9-7.356-23.39 4.402-8.49 14.875-11.83 23.379-7.4 8.492 4.42 11.813 14.9 7.383 23.41-4.43 8.48-14.903 11.8-23.406 7.38M80.965 1562.23c-2.117 9.36-11.375 15.27-20.727 13.19-9.379-2.11-15.285-11.33-13.18-20.67 2.079-9.35 11.31-15.29 20.7-13.2 9.324 2.07 15.258 11.32 13.207 20.68m452.851 1570.91c6.168 6.18 8.493 6.22 12.446 3.01l103.836-83.88c3.965-3.2 4.429-5.49-.328-12.82l3.253-2.63 31.625 39.12-3.285 2.65c-6.136-6.2-8.488-6.25-12.453-3.03l-103.84 83.9c-3.949 3.17-4.414 5.49.344 12.81l-3.266 2.63-31.613-39.12zm140.332-2079.19c-7.781-5.63-9.449-16.5-3.816-24.28 5.633-7.74 16.488-9.46 24.227-3.83 7.738 5.63 9.488 16.49 3.839 24.24-5.617 7.78-16.5 9.5-24.25 3.87m-401.925-38.17c-8.317-4.84-11.188-15.4-6.344-23.698 4.797-8.281 15.379-11.172 23.707-6.352 8.242 4.75 11.141 15.39 6.34 23.7-4.797 8.29-15.406 11.1-23.703 6.35m394.91 2405.79c7.066 6.48 7.547 17.45 1.078 24.52-6.492 7.07-17.457 7.55-24.512 1.07-7.082-6.48-7.574-17.44-1.066-24.52 6.48-7.07 17.445-7.54 24.5-1.07M363.141 870.23c-7.848-5.531-9.805-16.289-4.239-24.121a17.3 17.3 0 0 1 24.145-4.269c7.832 5.469 9.773 16.301 4.25 24.148-5.496 7.821-16.297 9.731-24.156 4.242m113.269 322.65 3.828 1.75-16.953 37-3.801-1.75c1.969-5.01 1.067-7.39-2.461-9.01l-99.613-45.65-.246.57c32.156 28.22 60.223 61.82 89.66 91.77l-1.859 4.07c-42.985-2.56-87.145-1.72-130.047-6.56l-.246.54 100.695 46.16c3.539 1.62 5.918.71 8.434-4.04l3.816 1.73-17.461 38.1-3.828-1.73c1.875-4.76 1.094-7.41-2.433-9.04l-124.633-57.08c-3.539-1.65-6.043-.48-8.203 3.46l-3.801-1.75 21.82-47.61 3.813 1.76c-.559 3.34-.094 5.22 2.351 6.37 3.817 1.72 53.801 1.91 95.649 3.95-12.317-11.91-61.481-67.04-66.129-69.14-1.887-.88-3.582 0-5.961 2.21l-3.774-1.75 22.051-48.19 3.817 1.76c-1.477 3.94-.586 6.32 2.953 7.95l124.644 57.1c3.531 1.63 6.031.46 7.918-2.95m129.281 2169.87c6.782 6.79 6.782 17.77 0 24.54-6.781 6.79-17.746 6.79-24.515 0-6.793-6.77-6.793-17.76 0-24.54 6.769-6.77 17.734-6.78 24.515 0M18.484 2052.66c9.532-.42 17.637 6.99 18.102 16.57.395 9.57-7.027 17.67-16.598 18.09-9.597.41-17.691-6.98-18.074-16.57-.422-9.57 6.973-17.66 16.57-18.09m758.883 1018.19c-6.41-7.13-5.836-18.1 1.274-24.51 7.136-6.42 18.101-5.84 24.527 1.29 6.426 7.11 5.809 18.1-1.301 24.51-7.121 6.42-18.086 5.82-24.5-1.29m-175.859-268.3c-8.313 4.81-18.91 1.95-23.707-6.35-4.785-8.31-1.93-18.91 6.344-23.72 8.312-4.77 18.921-1.94 23.707 6.36 4.812 8.31 1.941 18.93-6.344 23.71m145.043 206.22c-7.449 6.03-18.36 4.87-24.403-2.57-6.015-7.46-4.882-18.37 2.571-24.42 7.437-6.01 18.359-4.87 24.39 2.58 6.043 7.44 4.895 18.38-2.558 24.41M17.363 1966.86c9.57-.02 17.364 7.75 17.364 17.35-.028 9.57-7.782 17.33-17.364 17.33-9.597 0-17.39-7.76-17.363-17.33.016-9.59 7.766-17.34 17.363-17.35m14.563 256.88c9.472-1.25 18.195 5.41 19.48 14.93 1.203 9.48-5.469 18.2-14.957 19.45-9.515 1.26-18.238-5.42-19.453-14.93-1.258-9.49 5.426-18.19 14.93-19.45M316.094 942c-8.094-5.168-10.5-15.859-5.305-23.918 5.141-8.07 15.832-10.492 23.953-5.312 8.067 5.121 10.473 15.859 5.305 23.941-5.156 8.07-15.859 10.43-23.953 5.289m354.605 2352.76-30.117-29.61 2.941-2.97c3.184 1.86 8.27-.3 13.75-3.31 34.54-18.91 122.45-60.14 124.977-62.69 1.668-1.7 1.23-5.52-1.766-8.46l2.926-2.99 35.481 34.85-2.942 2.98c-2.992-2.92-5.972-3.33-7.859-1.43-5.66 5.78-40.414 77.87-62.852 123.8-3.32 6.8-4.988 9.77-2.636 14.61l-2.954 3.02-28.808-28.36 2.969-2.97c4.675 2.9 6.371 3.31 7.601 2.04 3.172-3.2 34.153-66.79 52.047-101.22l-.422-.42c-31.39 17.4-96.113 47.82-100.324 52.1-1.887 1.93-1.875 4.04.93 8.04zM23.339 2138.35c9.5-.83 17.95 6.2 18.813 15.75.805 9.56-6.25 17.95-15.804 18.81-9.559.83-17.98-6.22-18.774-15.77-.847-9.54 6.195-17.95 15.766-18.79m18.812-324.07c-.863 9.53-9.258 16.61-18.812 15.76-9.57-.84-16.64-9.24-15.766-18.78.836-9.54 9.23-16.6 18.785-15.76 9.516.83 16.598 9.22 15.793 18.78m8.106-188.71c9.406 1.64 15.722 10.64 14.11 20.08-1.708 9.45-10.692 15.74-20.153 14.07-9.434-1.67-15.723-10.64-14.04-20.07 1.653-9.43 10.622-15.75 20.083-14.08M694.64 2942.6c-7.766 5.63-18.621 3.9-24.254-3.85-5.633-7.77-3.899-18.61 3.828-24.25 7.765-5.62 18.621-3.89 24.254 3.86 5.644 7.74 3.91 18.61-3.828 24.24M44.215 2308.67c9.433-1.66 18.445 4.62 20.125 14.07 1.64 9.43-4.66 18.42-14.082 20.09-9.461 1.67-18.457-4.62-20.082-14.06-1.684-9.44 4.578-18.43 14.039-20.1M724.637 986.672c-7.465-6.063-8.586-17-2.571-24.461 6.071-7.441 16.965-8.563 24.446-2.539 7.41 6.027 8.586 16.949 2.543 24.387-6.032 7.492-16.996 8.613-24.418 2.613M413.273 800.59c-7.617-5.871-9.062-16.719-3.199-24.301 5.836-7.609 16.707-9.078 24.336-3.23 7.574 5.839 9.024 16.722 3.199 24.32-5.836 7.59-16.718 9.031-24.336 3.211M36.465 1710.27c9.472 1.24 16.172 9.96 14.941 19.45-1.285 9.49-9.98 16.19-19.48 14.94-9.504-1.25-16.203-9.95-14.93-19.45 1.242-9.49 9.95-16.19 19.469-14.94m.12 188.87c-.464 9.6-8.558 17-18.128 16.6-9.57-.44-16.98-8.53-16.543-18.09.41-9.57 8.492-16.99 18.074-16.56 9.543.4 16.992 8.48 16.598 18.05" style="fill:#263b5e;fill-opacity:1;fill-rule:nonzero;stroke:none" transform="matrix(.27214 0 0 -.27214 0 1080)"/><path d="M1902.57 2728.2c-25.55 12.65-70.41 19.49-97.84 6.87 7.19 12.03 23.49 17.37 48.91 18.37 17.05.65 31.44-3.9 48.53-7.83 25.03-5.78 50.51-15.13 45.74-27.74-4.77-12.62-45.34 10.33-45.34 10.33m164.64 0c25.52 12.65 70.38 19.49 97.82 6.87-7.18 12.03-23.48 17.37-48.89 18.37-17.05.65-31.45-3.9-48.52-7.83-25.05-5.78-50.53-15.13-45.76-27.74 4.77-12.62 45.35 10.33 45.35 10.33m43.61-47.94c1.55 5.25 5.05 8.61 3.72 16.64 25.83 2.39 13.12-26.94-3.72-16.64m-22.6 14.69c-3.08 1.76-5.1 4.74-3.29 7.11 1.78 2.37 5.15 1.38 7.9.19 1.54-.66 3.93-3.95 2.47-5.9-1.47-1.89-5.54-2.35-7.08-1.4m64.62-6.37c-9.57 19.16-34.78 31.68-64.25 28.51-2.84-.32-6.19-1.3-9.45-1.88-16.03-3.86-24.36-10.42-27.01-13.22-6.12-10.41-13.65-21.2-16.64-30.06 6.27-2.77 9.52 6.75 12.44 11.11 7.47 8.72 10.36 14.49 22.16 16.24-.36-7.14-.36-16.24 4.93-21.4-7.27-1.75-11.91.64-20.99 0 4.37-7.24 16-7.67 24.7-8.32 25.1-1.83 55.27 3.1 77.07 10.26 0 0-1.34 4.74-2.96 8.76m-297.61 8.32c-1.34-8.03 2.17-11.39 3.72-16.64-16.83-10.3-29.55 19.03-3.72 16.64m19.22-.55c-1.45 1.95.95 5.24 2.5 5.9 2.73 1.19 6.12 2.18 7.88-.19 1.81-2.37-.19-5.35-3.25-7.11-1.54-.95-5.62-.49-7.13 1.4m-60.47-16.53c21.79-7.16 51.99-12.09 77.07-10.26 8.68.65 20.33 1.08 24.7 8.32-9.07.64-13.7-1.75-20.99 0 5.28 5.16 5.28 14.26 4.94 21.4 11.78-1.75 14.66-7.52 22.16-16.24 2.9-4.36 6.17-13.88 12.42-11.11-2.96 8.86-10.5 19.65-16.65 30.06-2.63 2.8-10.98 9.36-26.99 13.22-3.25.58-6.64 1.56-9.45 1.88-29.48 3.17-54.66-9.35-64.26-28.51-1.61-4.02-2.95-8.76-2.95-8.76m177.33-148.48c17.24-5.19 44.12 2.67 45.76 18.23-6.59 6.8-21.72-2.96-30.31-8.94-8.43-5.9-16.77-8.9-15.45-9.29m-13.36.02c-17.22-5.12-44.14 2.88-45.84 18.43 6.58 6.74 21.74-3.05 30.36-9.06 8.43-5.93 16.81-9 15.48-9.37m6.94-101.33c-18.23 0-34.05 13.69-34.05 13.69l3.15 2.41c18.67-5.21 42.12-5.99 60.9-1l2.61-1.82s-14.4-13.28-32.61-13.28" style="fill:#263b5e;fill-opacity:1;fill-rule:nonzero;stroke:none" transform="matrix(.27214 0 0 -.27214 0 1080)"/></svg>