<?xml version="1.0" standalone="no"?>
<!DOCTYPE svg PUBLIC "-//W3C//DTD SVG 20010904//EN"
 "http://www.w3.org/TR/2001/REC-SVG-20010904/DTD/svg10.dtd">
<svg version="1.0" xmlns="http://www.w3.org/2000/svg"
 width="684.000000pt" height="1379.000000pt" viewBox="0 0 684.000000 1379.000000"
 preserveAspectRatio="xMidYMid meet">

<g transform="translate(0.000000,1379.000000) scale(0.100000,-0.100000)"
fill="#000" stroke="none">
<path d="M3215 13774 c-226 -57 -395 -207 -525 -464 -62 -123 -136 -378 -159 -552 -36 -261 -43 -799 -16 -1073 34 -336 87 -659 148 -892 l23 -92 -70 -58 c-130 -107 -258 -203 -500 -375 -445 -316 -552 -402 -723 -582 -134 -140 -218 -262 -313 -451 -111 -221 -134 -310 -135 -510 0 -125 4 -162 22 -225 63 -217 224 -377 429 -426 108 -27 259 -22 367 10 205 61 402 199 572 401 138 164 238 392 271 620 35 234 -6 532 -99 723 -29 60 -47 78 -47 47 0 -52 -107 -199 -264 -364 -212 -222 -244 -296 -256 -596 -8 -200 -14 -230 -54 -300 -39 -66 -75 -105 -131 -140 -76 -48 -137 -65 -235 -65 -77 0 -93 3 -156 34 -193 92 -283 325 -218 566 43 160 158 369 291 529 149 177 446 429 746 631 53 35 389 289 455 343 40 33 75 57 78 54 3 -3 27 -77 54 -164 49 -165 135 -422 226 -678 50 -143 228 -591 404 -1020 222 -539 274 -666 300 -735 15 -41 49 -129 75 -195 112 -284 372 -1022 363 -1030 -16 -15 -387 -177 -573 -250 -273 -107 -335 -131 -485 -185 -414 -148 -675 -274 -898 -432 l-83 -58 -62 34 c-186 104 -437 102 -652 -6 -295 -148 -559 -444 -805 -902 -117 -219 -302 -699 -365 -946 -9 -36 -20 -78 -25 -95 -22 -72 -81 -353 -104 -495 -111 -670 -111 -1205 0 -1745 32 -159 115 -442 160 -551 99 -239 233 -450 391 -615 265 -276 549 -420 943 -479 114 -17 382 -12 516 10 171 28 464 116 562 170 9 5 72 36 140 70 262 129 539 330 778 565 480 471 822 1093 1025 1865 57 217 69 265 99 415 74 363 95 595 95 1045 -1 327 -6 420 -41 770 -11 107 -65 477 -90 610 -60 327 -135 644 -235 993 -33 115 -59 210 -57 211 2 2 30 18 63 36 96 54 326 198 380 239 28 21 93 68 145 107 94 68 251 189 300 230 600 509 1104 1122 1365 1659 205 422 260 759 164 998 -29 71 -105 154 -170 185 -231 111 -491 -25 -554 -290 -33 -139 -12 -265 89 -535 30 -82 64 -183 76 -223 56 -201 27 -428 -82 -647 -136 -274 -667 -836 -1118 -1184 -210 -162 -533 -380 -677 -458 -21 -10 -24 -4 -84 177 -34 103 -104 300 -155 437 -150 405 -272 709 -462 1155 -24 58 -61 146 -82 195 -21 50 -90 214 -153 365 -197 470 -405 1039 -506 1384 l-39 131 113 115 c213 217 362 401 520 645 249 382 394 747 439 1105 61 486 -1 812 -192 1016 -125 133 -235 184 -407 189 -60 2 -119 2 -130 -1z m246 -154 c165 -50 284 -196 351 -427 21 -72 23 -97 22 -338 0 -205 -4 -279 -18 -350 -22 -118 -71 -299 -100 -378 -146 -385 -441 -842 -761 -1175 -75 -78 -111 -109 -116 -100 -29 55 -122 539 -156 818 -22 184 -26 824 -5 990 29 230 76 417 142 564 43 97 136 231 198 286 56 50 157 107 214 120 62 15 164 11 229 -10z m772 -7192 c160 -567 258 -1107 314 -1726 21 -235 24 -872 5 -1067 -14 -137 -38 -329 -47 -380 -62 -322 -112 -511 -215 -816 -33 -98 -68 -198 -79 -221 -10 -24 -24 -59 -31 -78 -24 -63 -167 -358 -221 -453 -97 -170 -273 -424 -377 -542 -472 -536 -1027 -866 -1604 -951 -149 -22 -385 -15 -508 16 -94 23 -240 69 -255 80 -5 4 -21 11 -35 15 -35 10 -204 111 -270 161 -139 105 -323 327 -419 505 -259 481 -390 1207 -337 1869 46 566 147 1043 325 1533 157 432 315 729 532 998 251 311 572 485 812 440 54 -10 177 -58 177 -68 0 -3 -34 -37 -76 -76 -92 -85 -246 -268 -337 -399 -294 -421 -574 -1035 -677 -1484 -41 -177 -53 -427 -26 -532 29 -113 100 -204 182 -233 22 -8 75 -14 119 -14 74 0 88 4 168 42 256 123 509 415 727 837 153 295 236 533 291 831 28 148 33 493 10 610 -29 147 -91 287 -167 378 -13 16 -24 32 -24 36 0 9 123 90 242 160 131 77 356 180 548 251 506 187 832 319 1050 423 63 31 122 56 130 56 12 1 30 -49 73 -201z m-2032 -933 c46 -99 65 -172 80 -306 48 -436 -168 -1105 -514 -1593 -151 -214 -344 -396 -485 -459 -66 -28 -161 -29 -199 -1 -37 27 -70 77 -85 128 -18 59 -14 281 6 396 99 545 503 1381 862 1780 33 36 95 100 139 143 l80 78 39 -43 c21 -24 56 -79 77 -123z"/>
</g>
</svg>
